<svg xmlns="http://www.w3.org/2000/svg" xmlns:xlink="http://www.w3.org/1999/xlink" width="200" zoomAndPan="magnify" viewBox="0 0 150 74.999997" height="100" preserveAspectRatio="xMidYMid meet" version="1.0"><defs><g/><clipPath id="ef812aab15"><path d="M 61.414062 48.875 L 82.714844 48.875 L 82.714844 54.359375 L 61.414062 54.359375 Z M 61.414062 48.875 " clip-rule="nonzero"/></clipPath><clipPath id="6882ce6b8c"><path d="M 61.414062 20.625 L 88.402344 20.625 L 88.402344 54.320312 L 61.414062 54.320312 Z M 61.414062 20.625 " clip-rule="nonzero"/></clipPath></defs><g fill="#000000" fill-opacity="1"><g transform="translate(48.228841, 63.249992)"><g><path d="M 1.15625 -3.171875 C 1.15625 -3.234375 1.15625 -3.296875 1.15625 -3.359375 C 1.15625 -3.421875 1.15625 -3.484375 1.15625 -3.546875 C 1.15625 -3.578125 1.15625 -3.613281 1.15625 -3.65625 C 1.15625 -3.695312 1.15625 -3.738281 1.15625 -3.78125 C 1.164062 -3.8125 1.171875 -3.84375 1.171875 -3.875 C 1.171875 -3.914062 1.171875 -3.953125 1.171875 -3.984375 C 1.171875 -4.222656 1.171875 -4.457031 1.171875 -4.6875 C 1.171875 -4.914062 1.175781 -5.144531 1.1875 -5.375 C 1.1875 -5.40625 1.1875 -5.4375 1.1875 -5.46875 C 1.1875 -5.507812 1.175781 -5.546875 1.15625 -5.578125 C 1.15625 -5.628906 1.148438 -5.679688 1.140625 -5.734375 C 1.140625 -5.785156 1.140625 -5.832031 1.140625 -5.875 C 1.140625 -5.988281 1.140625 -6.097656 1.140625 -6.203125 C 1.140625 -6.304688 1.140625 -6.410156 1.140625 -6.515625 C 1.140625 -6.554688 1.132812 -6.585938 1.125 -6.609375 C 1.113281 -6.640625 1.101562 -6.65625 1.09375 -6.65625 C 1.039062 -6.695312 0.988281 -6.726562 0.9375 -6.75 C 0.90625 -6.757812 0.867188 -6.765625 0.828125 -6.765625 C 0.796875 -6.773438 0.765625 -6.785156 0.734375 -6.796875 C 0.703125 -6.804688 0.671875 -6.8125 0.640625 -6.8125 C 0.609375 -6.8125 0.578125 -6.8125 0.546875 -6.8125 C 0.503906 -6.832031 0.484375 -6.859375 0.484375 -6.890625 C 0.492188 -6.898438 0.5 -6.910156 0.5 -6.921875 C 0.507812 -6.929688 0.515625 -6.9375 0.515625 -6.9375 C 0.546875 -6.96875 0.582031 -6.984375 0.625 -6.984375 C 0.644531 -6.992188 0.675781 -7 0.71875 -7 C 1.113281 -7 1.503906 -7 1.890625 -7 C 2.285156 -7 2.675781 -7 3.0625 -7 C 3.082031 -7 3.101562 -6.992188 3.125 -6.984375 C 3.144531 -6.984375 3.164062 -6.984375 3.1875 -6.984375 C 3.21875 -6.984375 3.238281 -6.96875 3.25 -6.9375 C 3.257812 -6.925781 3.257812 -6.90625 3.25 -6.875 C 3.238281 -6.851562 3.226562 -6.835938 3.21875 -6.828125 C 3.15625 -6.816406 3.09375 -6.800781 3.03125 -6.78125 C 2.976562 -6.769531 2.925781 -6.753906 2.875 -6.734375 C 2.800781 -6.710938 2.738281 -6.675781 2.6875 -6.625 C 2.6875 -6.613281 2.675781 -6.59375 2.65625 -6.5625 C 2.644531 -6.519531 2.628906 -6.472656 2.609375 -6.421875 C 2.597656 -6.367188 2.59375 -6.316406 2.59375 -6.265625 C 2.59375 -6.171875 2.59375 -6.078125 2.59375 -5.984375 C 2.59375 -5.890625 2.59375 -5.789062 2.59375 -5.6875 C 2.59375 -5.425781 2.59375 -5.15625 2.59375 -4.875 C 2.59375 -4.59375 2.59375 -4.316406 2.59375 -4.046875 C 2.59375 -3.878906 2.59375 -3.710938 2.59375 -3.546875 C 2.59375 -3.378906 2.59375 -3.210938 2.59375 -3.046875 C 2.59375 -2.804688 2.59375 -2.566406 2.59375 -2.328125 C 2.59375 -2.085938 2.585938 -1.847656 2.578125 -1.609375 C 2.566406 -1.441406 2.5625 -1.269531 2.5625 -1.09375 C 2.570312 -0.925781 2.578125 -0.753906 2.578125 -0.578125 C 2.578125 -0.546875 2.582031 -0.523438 2.59375 -0.515625 C 2.59375 -0.472656 2.601562 -0.445312 2.625 -0.4375 C 2.664062 -0.414062 2.703125 -0.394531 2.734375 -0.375 C 2.773438 -0.351562 2.8125 -0.34375 2.84375 -0.34375 C 2.914062 -0.34375 2.992188 -0.34375 3.078125 -0.34375 C 3.160156 -0.34375 3.238281 -0.34375 3.3125 -0.34375 C 3.363281 -0.332031 3.414062 -0.328125 3.46875 -0.328125 C 3.519531 -0.328125 3.566406 -0.320312 3.609375 -0.3125 C 3.691406 -0.3125 3.773438 -0.304688 3.859375 -0.296875 C 3.941406 -0.296875 4.019531 -0.296875 4.09375 -0.296875 C 4.125 -0.296875 4.148438 -0.296875 4.171875 -0.296875 C 4.191406 -0.304688 4.21875 -0.3125 4.25 -0.3125 C 4.28125 -0.332031 4.3125 -0.332031 4.34375 -0.3125 C 4.363281 -0.3125 4.382812 -0.3125 4.40625 -0.3125 C 4.4375 -0.3125 4.460938 -0.3125 4.484375 -0.3125 C 4.535156 -0.332031 4.582031 -0.347656 4.625 -0.359375 C 4.675781 -0.367188 4.726562 -0.382812 4.78125 -0.40625 C 4.894531 -0.4375 4.988281 -0.507812 5.0625 -0.625 C 5.175781 -0.8125 5.265625 -0.992188 5.328125 -1.171875 C 5.359375 -1.253906 5.390625 -1.332031 5.421875 -1.40625 C 5.460938 -1.476562 5.5 -1.5625 5.53125 -1.65625 C 5.550781 -1.707031 5.578125 -1.742188 5.609375 -1.765625 C 5.660156 -1.816406 5.707031 -1.832031 5.75 -1.8125 C 5.757812 -1.8125 5.769531 -1.800781 5.78125 -1.78125 C 5.800781 -1.769531 5.8125 -1.765625 5.8125 -1.765625 C 5.8125 -1.742188 5.8125 -1.722656 5.8125 -1.703125 C 5.820312 -1.691406 5.828125 -1.679688 5.828125 -1.671875 C 5.828125 -1.617188 5.828125 -1.570312 5.828125 -1.53125 C 5.828125 -1.5 5.828125 -1.460938 5.828125 -1.421875 C 5.828125 -1.265625 5.820312 -1.101562 5.8125 -0.9375 C 5.8125 -0.78125 5.8125 -0.628906 5.8125 -0.484375 C 5.8125 -0.398438 5.796875 -0.316406 5.765625 -0.234375 C 5.742188 -0.179688 5.695312 -0.128906 5.625 -0.078125 C 5.625 -0.0664062 5.609375 -0.0546875 5.578125 -0.046875 C 5.566406 -0.046875 5.550781 -0.046875 5.53125 -0.046875 C 5.519531 -0.046875 5.503906 -0.046875 5.484375 -0.046875 C 5.429688 -0.046875 5.375 -0.046875 5.3125 -0.046875 C 5.257812 -0.046875 5.207031 -0.046875 5.15625 -0.046875 C 5.09375 -0.0351562 5.035156 -0.03125 4.984375 -0.03125 C 4.929688 -0.03125 4.875 -0.0234375 4.8125 -0.015625 C 4.800781 -0.00390625 4.785156 0 4.765625 0 C 4.742188 0 4.722656 0 4.703125 0 C 4.597656 0 4.5 0 4.40625 0 C 4.3125 0.0078125 4.21875 0.015625 4.125 0.015625 C 3.507812 0.015625 2.898438 0.015625 2.296875 0.015625 C 1.703125 0.015625 1.097656 0.0078125 0.484375 0 C 0.460938 0 0.441406 0 0.421875 0 C 0.410156 0 0.394531 -0.00390625 0.375 -0.015625 C 0.34375 -0.0234375 0.320312 -0.0351562 0.3125 -0.046875 C 0.300781 -0.0546875 0.296875 -0.0703125 0.296875 -0.09375 C 0.296875 -0.113281 0.300781 -0.128906 0.3125 -0.140625 C 0.34375 -0.171875 0.378906 -0.191406 0.421875 -0.203125 C 0.523438 -0.242188 0.617188 -0.273438 0.703125 -0.296875 C 0.753906 -0.296875 0.796875 -0.300781 0.828125 -0.3125 C 0.867188 -0.332031 0.90625 -0.351562 0.9375 -0.375 C 0.945312 -0.375 0.957031 -0.378906 0.96875 -0.390625 C 0.988281 -0.398438 1.003906 -0.410156 1.015625 -0.421875 C 1.046875 -0.441406 1.0625 -0.46875 1.0625 -0.5 C 1.082031 -0.582031 1.097656 -0.660156 1.109375 -0.734375 C 1.117188 -0.816406 1.125 -0.898438 1.125 -0.984375 C 1.125 -1.078125 1.125 -1.175781 1.125 -1.28125 C 1.125 -1.382812 1.128906 -1.488281 1.140625 -1.59375 C 1.140625 -1.851562 1.140625 -2.113281 1.140625 -2.375 C 1.140625 -2.644531 1.140625 -2.910156 1.140625 -3.171875 C 1.148438 -3.171875 1.15625 -3.171875 1.15625 -3.171875 Z M 1.15625 -3.171875 "/></g></g></g><g fill="#000000" fill-opacity="1"><g transform="translate(56.18648, 63.249992)"><g><path d="M 2.953125 0.015625 C 2.941406 0.015625 2.9375 0.015625 2.9375 0.015625 C 2.9375 0.015625 2.929688 0.015625 2.921875 0.015625 C 2.796875 0.0234375 2.664062 0.03125 2.53125 0.03125 C 2.394531 0.03125 2.257812 0.03125 2.125 0.03125 C 1.851562 0.03125 1.578125 0.0234375 1.296875 0.015625 C 1.023438 0.015625 0.753906 0.015625 0.484375 0.015625 C 0.460938 0.015625 0.441406 0.015625 0.421875 0.015625 C 0.398438 0.015625 0.378906 0.0078125 0.359375 0 C 0.328125 -0.0195312 0.3125 -0.0390625 0.3125 -0.0625 C 0.3125 -0.101562 0.320312 -0.132812 0.34375 -0.15625 C 0.40625 -0.195312 0.472656 -0.222656 0.546875 -0.234375 C 0.578125 -0.234375 0.613281 -0.238281 0.65625 -0.25 C 0.695312 -0.257812 0.734375 -0.269531 0.765625 -0.28125 C 0.796875 -0.289062 0.820312 -0.300781 0.84375 -0.3125 C 0.863281 -0.320312 0.882812 -0.332031 0.90625 -0.34375 C 0.976562 -0.375 1.019531 -0.429688 1.03125 -0.515625 C 1.039062 -0.566406 1.046875 -0.617188 1.046875 -0.671875 C 1.046875 -0.722656 1.046875 -0.769531 1.046875 -0.8125 C 1.046875 -0.894531 1.046875 -0.96875 1.046875 -1.03125 C 1.046875 -1.101562 1.046875 -1.175781 1.046875 -1.25 C 1.046875 -1.3125 1.046875 -1.375 1.046875 -1.4375 C 1.046875 -1.507812 1.054688 -1.578125 1.078125 -1.640625 C 1.085938 -1.671875 1.09375 -1.703125 1.09375 -1.734375 C 1.09375 -1.765625 1.09375 -1.789062 1.09375 -1.8125 C 1.09375 -1.882812 1.09375 -1.953125 1.09375 -2.015625 C 1.09375 -2.085938 1.09375 -2.15625 1.09375 -2.21875 C 1.101562 -2.3125 1.109375 -2.40625 1.109375 -2.5 C 1.117188 -2.601562 1.128906 -2.703125 1.140625 -2.796875 C 1.148438 -2.867188 1.15625 -2.9375 1.15625 -3 C 1.15625 -3.0625 1.15625 -3.125 1.15625 -3.1875 C 1.144531 -3.320312 1.140625 -3.457031 1.140625 -3.59375 C 1.140625 -3.726562 1.140625 -3.859375 1.140625 -3.984375 C 1.140625 -4.035156 1.140625 -4.085938 1.140625 -4.140625 C 1.140625 -4.191406 1.132812 -4.242188 1.125 -4.296875 C 1.113281 -4.328125 1.109375 -4.359375 1.109375 -4.390625 C 1.109375 -4.421875 1.109375 -4.445312 1.109375 -4.46875 C 1.097656 -4.5625 1.09375 -4.65625 1.09375 -4.75 C 1.09375 -4.851562 1.09375 -4.953125 1.09375 -5.046875 C 1.09375 -5.265625 1.09375 -5.476562 1.09375 -5.6875 C 1.09375 -5.90625 1.09375 -6.117188 1.09375 -6.328125 C 1.09375 -6.359375 1.09375 -6.390625 1.09375 -6.421875 C 1.09375 -6.453125 1.085938 -6.484375 1.078125 -6.515625 C 1.078125 -6.554688 1.0625 -6.585938 1.03125 -6.609375 C 0.976562 -6.660156 0.9375 -6.6875 0.90625 -6.6875 C 0.84375 -6.695312 0.785156 -6.707031 0.734375 -6.71875 C 0.679688 -6.738281 0.625 -6.753906 0.5625 -6.765625 C 0.53125 -6.765625 0.488281 -6.785156 0.4375 -6.828125 C 0.425781 -6.859375 0.421875 -6.878906 0.421875 -6.890625 C 0.421875 -6.941406 0.441406 -6.96875 0.484375 -6.96875 C 0.554688 -6.976562 0.628906 -6.984375 0.703125 -6.984375 C 0.785156 -6.984375 0.863281 -6.972656 0.9375 -6.953125 C 1.039062 -6.941406 1.144531 -6.9375 1.25 -6.9375 C 1.351562 -6.9375 1.453125 -6.941406 1.546875 -6.953125 C 1.578125 -6.960938 1.609375 -6.96875 1.640625 -6.96875 C 1.679688 -6.976562 1.722656 -6.984375 1.765625 -6.984375 C 1.828125 -6.984375 1.890625 -6.984375 1.953125 -6.984375 C 2.023438 -6.984375 2.09375 -6.984375 2.15625 -6.984375 C 2.1875 -6.992188 2.21875 -7 2.25 -7 C 2.289062 -7 2.332031 -7 2.375 -7 C 2.875 -6.988281 3.367188 -6.984375 3.859375 -6.984375 C 4.359375 -6.984375 4.859375 -6.984375 5.359375 -6.984375 C 5.390625 -6.984375 5.414062 -6.984375 5.4375 -6.984375 C 5.457031 -6.984375 5.484375 -6.976562 5.515625 -6.96875 C 5.523438 -6.957031 5.539062 -6.941406 5.5625 -6.921875 C 5.582031 -6.910156 5.59375 -6.898438 5.59375 -6.890625 C 5.601562 -6.835938 5.609375 -6.789062 5.609375 -6.75 C 5.609375 -6.707031 5.613281 -6.660156 5.625 -6.609375 C 5.625 -6.535156 5.625 -6.457031 5.625 -6.375 C 5.625 -6.300781 5.625 -6.226562 5.625 -6.15625 C 5.625 -6.113281 5.625 -6.066406 5.625 -6.015625 C 5.625 -5.960938 5.628906 -5.90625 5.640625 -5.84375 C 5.648438 -5.769531 5.65625 -5.695312 5.65625 -5.625 C 5.65625 -5.550781 5.65625 -5.476562 5.65625 -5.40625 C 5.65625 -5.394531 5.65625 -5.382812 5.65625 -5.375 C 5.65625 -5.363281 5.65625 -5.351562 5.65625 -5.34375 C 5.65625 -5.332031 5.644531 -5.316406 5.625 -5.296875 C 5.601562 -5.285156 5.585938 -5.285156 5.578125 -5.296875 C 5.554688 -5.296875 5.539062 -5.300781 5.53125 -5.3125 C 5.507812 -5.320312 5.5 -5.335938 5.5 -5.359375 C 5.488281 -5.398438 5.484375 -5.429688 5.484375 -5.453125 C 5.472656 -5.492188 5.457031 -5.535156 5.4375 -5.578125 C 5.425781 -5.617188 5.414062 -5.660156 5.40625 -5.703125 C 5.40625 -5.722656 5.394531 -5.742188 5.375 -5.765625 C 5.351562 -5.816406 5.328125 -5.863281 5.296875 -5.90625 C 5.273438 -5.945312 5.253906 -5.988281 5.234375 -6.03125 C 5.171875 -6.125 5.101562 -6.210938 5.03125 -6.296875 C 4.96875 -6.390625 4.890625 -6.472656 4.796875 -6.546875 C 4.796875 -6.554688 4.78125 -6.566406 4.75 -6.578125 C 4.738281 -6.585938 4.710938 -6.601562 4.671875 -6.625 C 4.617188 -6.632812 4.570312 -6.640625 4.53125 -6.640625 C 4.488281 -6.648438 4.445312 -6.660156 4.40625 -6.671875 C 4.382812 -6.679688 4.363281 -6.6875 4.34375 -6.6875 C 4.320312 -6.6875 4.300781 -6.6875 4.28125 -6.6875 C 4.21875 -6.6875 4.15625 -6.6875 4.09375 -6.6875 C 4.039062 -6.6875 3.976562 -6.6875 3.90625 -6.6875 C 3.71875 -6.6875 3.523438 -6.6875 3.328125 -6.6875 C 3.140625 -6.6875 2.953125 -6.6875 2.765625 -6.6875 C 2.742188 -6.6875 2.722656 -6.6875 2.703125 -6.6875 C 2.679688 -6.6875 2.660156 -6.679688 2.640625 -6.671875 C 2.585938 -6.660156 2.5625 -6.628906 2.5625 -6.578125 C 2.5625 -6.566406 2.554688 -6.550781 2.546875 -6.53125 C 2.546875 -6.519531 2.550781 -6.503906 2.5625 -6.484375 C 2.5625 -6.390625 2.5625 -6.289062 2.5625 -6.1875 C 2.5625 -6.082031 2.5625 -5.976562 2.5625 -5.875 C 2.5625 -5.832031 2.566406 -5.804688 2.578125 -5.796875 C 2.585938 -5.710938 2.59375 -5.628906 2.59375 -5.546875 C 2.59375 -5.472656 2.59375 -5.390625 2.59375 -5.296875 C 2.59375 -5.191406 2.59375 -5.085938 2.59375 -4.984375 C 2.59375 -4.878906 2.59375 -4.769531 2.59375 -4.65625 C 2.59375 -4.613281 2.59375 -4.566406 2.59375 -4.515625 C 2.59375 -4.460938 2.585938 -4.410156 2.578125 -4.359375 C 2.566406 -4.316406 2.5625 -4.273438 2.5625 -4.234375 C 2.570312 -4.203125 2.578125 -4.164062 2.578125 -4.125 C 2.578125 -4.070312 2.578125 -4.019531 2.578125 -3.96875 C 2.578125 -3.925781 2.578125 -3.882812 2.578125 -3.84375 C 2.578125 -3.800781 2.601562 -3.773438 2.65625 -3.765625 C 2.664062 -3.765625 2.671875 -3.765625 2.671875 -3.765625 C 2.679688 -3.765625 2.6875 -3.765625 2.6875 -3.765625 C 2.863281 -3.765625 3.035156 -3.765625 3.203125 -3.765625 C 3.367188 -3.765625 3.535156 -3.765625 3.703125 -3.765625 C 3.722656 -3.765625 3.742188 -3.765625 3.765625 -3.765625 C 3.796875 -3.765625 3.820312 -3.765625 3.84375 -3.765625 C 3.957031 -3.765625 4.070312 -3.800781 4.1875 -3.875 C 4.257812 -3.925781 4.300781 -3.984375 4.3125 -4.046875 C 4.332031 -4.085938 4.347656 -4.128906 4.359375 -4.171875 C 4.378906 -4.210938 4.394531 -4.253906 4.40625 -4.296875 C 4.414062 -4.390625 4.429688 -4.476562 4.453125 -4.5625 C 4.460938 -4.582031 4.472656 -4.597656 4.484375 -4.609375 C 4.492188 -4.617188 4.503906 -4.632812 4.515625 -4.65625 C 4.515625 -4.65625 4.523438 -4.660156 4.546875 -4.671875 C 4.566406 -4.679688 4.582031 -4.679688 4.59375 -4.671875 C 4.59375 -4.660156 4.597656 -4.648438 4.609375 -4.640625 C 4.617188 -4.640625 4.625 -4.632812 4.625 -4.625 C 4.632812 -4.613281 4.640625 -4.59375 4.640625 -4.5625 C 4.640625 -4.53125 4.640625 -4.492188 4.640625 -4.453125 C 4.648438 -4.421875 4.648438 -4.382812 4.640625 -4.34375 C 4.628906 -4.25 4.617188 -4.15625 4.609375 -4.0625 C 4.609375 -3.96875 4.601562 -3.875 4.59375 -3.78125 C 4.582031 -3.75 4.578125 -3.71875 4.578125 -3.6875 C 4.578125 -3.664062 4.570312 -3.632812 4.5625 -3.59375 C 4.5625 -3.4375 4.5625 -3.285156 4.5625 -3.140625 C 4.5625 -3.054688 4.570312 -2.976562 4.59375 -2.90625 C 4.613281 -2.820312 4.625 -2.738281 4.625 -2.65625 C 4.625 -2.644531 4.625 -2.628906 4.625 -2.609375 C 4.625 -2.597656 4.625 -2.582031 4.625 -2.5625 C 4.613281 -2.507812 4.585938 -2.484375 4.546875 -2.484375 C 4.515625 -2.484375 4.488281 -2.5 4.46875 -2.53125 C 4.457031 -2.550781 4.445312 -2.566406 4.4375 -2.578125 C 4.425781 -2.609375 4.414062 -2.640625 4.40625 -2.671875 C 4.394531 -2.710938 4.382812 -2.753906 4.375 -2.796875 C 4.351562 -2.847656 4.332031 -2.90625 4.3125 -2.96875 C 4.300781 -3.03125 4.28125 -3.09375 4.25 -3.15625 C 4.238281 -3.195312 4.210938 -3.226562 4.171875 -3.25 C 4.160156 -3.257812 4.15625 -3.265625 4.15625 -3.265625 C 4.132812 -3.285156 4.117188 -3.296875 4.109375 -3.296875 C 4.097656 -3.304688 4.082031 -3.3125 4.0625 -3.3125 C 3.957031 -3.375 3.84375 -3.40625 3.71875 -3.40625 C 3.5625 -3.40625 3.398438 -3.40625 3.234375 -3.40625 C 3.066406 -3.40625 2.90625 -3.410156 2.75 -3.421875 C 2.707031 -3.421875 2.664062 -3.414062 2.625 -3.40625 C 2.625 -3.40625 2.613281 -3.394531 2.59375 -3.375 C 2.570312 -3.363281 2.5625 -3.351562 2.5625 -3.34375 C 2.5625 -3.320312 2.5625 -3.289062 2.5625 -3.25 C 2.550781 -3.1875 2.546875 -3.117188 2.546875 -3.046875 C 2.546875 -2.972656 2.546875 -2.894531 2.546875 -2.8125 C 2.546875 -2.789062 2.546875 -2.765625 2.546875 -2.734375 C 2.546875 -2.710938 2.539062 -2.691406 2.53125 -2.671875 C 2.519531 -2.566406 2.507812 -2.460938 2.5 -2.359375 C 2.5 -2.265625 2.5 -2.164062 2.5 -2.0625 C 2.5 -1.851562 2.5 -1.640625 2.5 -1.421875 C 2.5 -1.203125 2.5 -0.988281 2.5 -0.78125 C 2.5 -0.71875 2.5 -0.65625 2.5 -0.59375 C 2.507812 -0.539062 2.515625 -0.484375 2.515625 -0.421875 C 2.515625 -0.410156 2.519531 -0.390625 2.53125 -0.359375 C 2.53125 -0.347656 2.539062 -0.335938 2.5625 -0.328125 C 2.582031 -0.316406 2.59375 -0.304688 2.59375 -0.296875 C 2.613281 -0.296875 2.628906 -0.296875 2.640625 -0.296875 C 2.660156 -0.296875 2.675781 -0.296875 2.6875 -0.296875 C 2.875 -0.296875 3.0625 -0.296875 3.25 -0.296875 C 3.4375 -0.296875 3.625 -0.296875 3.8125 -0.296875 C 3.832031 -0.296875 3.859375 -0.296875 3.890625 -0.296875 C 3.921875 -0.296875 3.945312 -0.300781 3.96875 -0.3125 C 4.039062 -0.320312 4.113281 -0.328125 4.1875 -0.328125 C 4.257812 -0.335938 4.328125 -0.34375 4.390625 -0.34375 C 4.472656 -0.34375 4.550781 -0.351562 4.625 -0.375 C 4.707031 -0.394531 4.789062 -0.414062 4.875 -0.4375 C 4.9375 -0.445312 5 -0.472656 5.0625 -0.515625 C 5.082031 -0.535156 5.101562 -0.550781 5.125 -0.5625 C 5.144531 -0.570312 5.164062 -0.582031 5.1875 -0.59375 C 5.238281 -0.632812 5.28125 -0.679688 5.3125 -0.734375 C 5.332031 -0.765625 5.351562 -0.796875 5.375 -0.828125 C 5.394531 -0.859375 5.414062 -0.882812 5.4375 -0.90625 C 5.445312 -0.945312 5.460938 -0.984375 5.484375 -1.015625 C 5.503906 -1.054688 5.519531 -1.09375 5.53125 -1.125 C 5.570312 -1.195312 5.601562 -1.273438 5.625 -1.359375 C 5.632812 -1.390625 5.644531 -1.425781 5.65625 -1.46875 C 5.664062 -1.507812 5.675781 -1.550781 5.6875 -1.59375 C 5.6875 -1.613281 5.691406 -1.644531 5.703125 -1.6875 C 5.722656 -1.726562 5.753906 -1.75 5.796875 -1.75 C 5.816406 -1.757812 5.835938 -1.753906 5.859375 -1.734375 C 5.890625 -1.722656 5.90625 -1.707031 5.90625 -1.6875 C 5.90625 -1.601562 5.90625 -1.519531 5.90625 -1.4375 C 5.90625 -1.351562 5.894531 -1.269531 5.875 -1.1875 C 5.863281 -1.125 5.851562 -1.0625 5.84375 -1 C 5.84375 -0.9375 5.84375 -0.867188 5.84375 -0.796875 C 5.84375 -0.722656 5.832031 -0.644531 5.8125 -0.5625 C 5.800781 -0.53125 5.796875 -0.503906 5.796875 -0.484375 C 5.796875 -0.460938 5.796875 -0.4375 5.796875 -0.40625 C 5.785156 -0.363281 5.78125 -0.320312 5.78125 -0.28125 C 5.78125 -0.25 5.773438 -0.210938 5.765625 -0.171875 C 5.753906 -0.117188 5.734375 -0.0820312 5.703125 -0.0625 C 5.679688 -0.0507812 5.65625 -0.0351562 5.625 -0.015625 C 5.601562 -0.00390625 5.578125 0 5.546875 0 C 5.503906 0.0078125 5.460938 0.015625 5.421875 0.015625 C 5.378906 0.015625 5.335938 0.015625 5.296875 0.015625 C 4.953125 0.015625 4.609375 0.015625 4.265625 0.015625 C 3.929688 0.015625 3.59375 0.015625 3.25 0.015625 C 3.207031 0.015625 3.160156 0.015625 3.109375 0.015625 C 3.054688 0.015625 3.003906 0.015625 2.953125 0.015625 Z M 2.953125 0.015625 "/></g></g></g><g fill="#000000" fill-opacity="1"><g transform="translate(64.483987, 63.249992)"><g><path d="M 2.796875 -6.671875 C 2.796875 -6.660156 2.785156 -6.644531 2.765625 -6.625 C 2.742188 -6.613281 2.726562 -6.601562 2.71875 -6.59375 C 2.664062 -6.539062 2.640625 -6.476562 2.640625 -6.40625 C 2.628906 -6.21875 2.617188 -6.03125 2.609375 -5.84375 C 2.597656 -5.65625 2.59375 -5.460938 2.59375 -5.265625 C 2.601562 -5.117188 2.609375 -4.96875 2.609375 -4.8125 C 2.609375 -4.664062 2.613281 -4.515625 2.625 -4.359375 C 2.625 -4.273438 2.625 -4.195312 2.625 -4.125 C 2.625 -4.050781 2.625 -3.976562 2.625 -3.90625 C 2.625 -3.882812 2.625 -3.863281 2.625 -3.84375 C 2.625 -3.832031 2.625 -3.820312 2.625 -3.8125 C 2.625 -3.800781 2.632812 -3.789062 2.65625 -3.78125 C 2.675781 -3.769531 2.691406 -3.769531 2.703125 -3.78125 C 2.773438 -3.832031 2.847656 -3.882812 2.921875 -3.9375 C 2.992188 -4 3.0625 -4.0625 3.125 -4.125 C 3.21875 -4.207031 3.304688 -4.285156 3.390625 -4.359375 C 3.484375 -4.441406 3.578125 -4.523438 3.671875 -4.609375 C 3.691406 -4.628906 3.710938 -4.648438 3.734375 -4.671875 C 3.753906 -4.691406 3.773438 -4.710938 3.796875 -4.734375 C 3.847656 -4.785156 3.898438 -4.835938 3.953125 -4.890625 C 4.003906 -4.941406 4.050781 -4.992188 4.09375 -5.046875 C 4.351562 -5.304688 4.617188 -5.554688 4.890625 -5.796875 C 5.046875 -5.960938 5.195312 -6.128906 5.34375 -6.296875 C 5.382812 -6.328125 5.421875 -6.363281 5.453125 -6.40625 C 5.484375 -6.457031 5.515625 -6.507812 5.546875 -6.5625 C 5.554688 -6.601562 5.554688 -6.632812 5.546875 -6.65625 C 5.535156 -6.695312 5.515625 -6.726562 5.484375 -6.75 C 5.390625 -6.78125 5.300781 -6.796875 5.21875 -6.796875 C 5.15625 -6.804688 5.09375 -6.8125 5.03125 -6.8125 C 4.96875 -6.8125 4.90625 -6.8125 4.84375 -6.8125 C 4.820312 -6.8125 4.796875 -6.820312 4.765625 -6.84375 C 4.765625 -6.863281 4.765625 -6.875 4.765625 -6.875 C 4.765625 -6.90625 4.773438 -6.925781 4.796875 -6.9375 C 4.804688 -6.9375 4.8125 -6.9375 4.8125 -6.9375 C 4.820312 -6.945312 4.84375 -6.953125 4.875 -6.953125 C 5.207031 -6.953125 5.535156 -6.953125 5.859375 -6.953125 C 6.179688 -6.953125 6.503906 -6.953125 6.828125 -6.953125 C 6.867188 -6.953125 6.894531 -6.945312 6.90625 -6.9375 C 6.9375 -6.914062 6.953125 -6.898438 6.953125 -6.890625 C 6.960938 -6.867188 6.957031 -6.851562 6.9375 -6.84375 C 6.914062 -6.820312 6.90625 -6.8125 6.90625 -6.8125 C 6.863281 -6.789062 6.804688 -6.773438 6.734375 -6.765625 C 6.703125 -6.765625 6.660156 -6.765625 6.609375 -6.765625 C 6.566406 -6.765625 6.523438 -6.757812 6.484375 -6.75 C 6.441406 -6.75 6.40625 -6.734375 6.375 -6.703125 C 6.351562 -6.691406 6.332031 -6.671875 6.3125 -6.640625 C 6.300781 -6.617188 6.28125 -6.601562 6.25 -6.59375 C 6.1875 -6.550781 6.128906 -6.503906 6.078125 -6.453125 C 6.035156 -6.398438 5.988281 -6.347656 5.9375 -6.296875 C 5.894531 -6.253906 5.851562 -6.207031 5.8125 -6.15625 C 5.78125 -6.113281 5.742188 -6.066406 5.703125 -6.015625 C 5.671875 -5.960938 5.628906 -5.910156 5.578125 -5.859375 C 5.535156 -5.816406 5.488281 -5.769531 5.4375 -5.71875 C 5.394531 -5.6875 5.351562 -5.648438 5.3125 -5.609375 C 5.28125 -5.566406 5.242188 -5.523438 5.203125 -5.484375 C 5.148438 -5.410156 5.09375 -5.34375 5.03125 -5.28125 C 4.96875 -5.21875 4.898438 -5.148438 4.828125 -5.078125 C 4.765625 -5.015625 4.703125 -4.953125 4.640625 -4.890625 C 4.585938 -4.828125 4.535156 -4.757812 4.484375 -4.6875 C 4.484375 -4.675781 4.472656 -4.660156 4.453125 -4.640625 C 4.441406 -4.628906 4.429688 -4.613281 4.421875 -4.59375 C 4.390625 -4.539062 4.382812 -4.492188 4.40625 -4.453125 C 4.425781 -4.421875 4.441406 -4.390625 4.453125 -4.359375 C 4.472656 -4.328125 4.492188 -4.296875 4.515625 -4.265625 C 4.523438 -4.242188 4.535156 -4.21875 4.546875 -4.1875 C 4.566406 -4.164062 4.585938 -4.144531 4.609375 -4.125 C 4.640625 -4.082031 4.664062 -4.046875 4.6875 -4.015625 C 4.707031 -3.992188 4.734375 -3.96875 4.765625 -3.9375 C 4.785156 -3.90625 4.804688 -3.875 4.828125 -3.84375 C 4.847656 -3.8125 4.867188 -3.78125 4.890625 -3.75 C 4.960938 -3.625 5.035156 -3.5 5.109375 -3.375 C 5.191406 -3.257812 5.269531 -3.144531 5.34375 -3.03125 C 5.40625 -2.9375 5.460938 -2.84375 5.515625 -2.75 C 5.578125 -2.65625 5.640625 -2.5625 5.703125 -2.46875 C 5.804688 -2.320312 5.90625 -2.171875 6 -2.015625 C 6.101562 -1.859375 6.207031 -1.703125 6.3125 -1.546875 C 6.332031 -1.523438 6.347656 -1.5 6.359375 -1.46875 C 6.378906 -1.4375 6.394531 -1.40625 6.40625 -1.375 C 6.457031 -1.28125 6.515625 -1.179688 6.578125 -1.078125 C 6.609375 -1.046875 6.632812 -1.007812 6.65625 -0.96875 C 6.675781 -0.925781 6.703125 -0.882812 6.734375 -0.84375 C 6.765625 -0.800781 6.796875 -0.753906 6.828125 -0.703125 C 6.859375 -0.660156 6.882812 -0.613281 6.90625 -0.5625 C 6.925781 -0.539062 6.945312 -0.515625 6.96875 -0.484375 C 7 -0.453125 7.023438 -0.425781 7.046875 -0.40625 C 7.078125 -0.363281 7.128906 -0.328125 7.203125 -0.296875 C 7.253906 -0.285156 7.304688 -0.269531 7.359375 -0.25 C 7.410156 -0.238281 7.460938 -0.234375 7.515625 -0.234375 C 7.585938 -0.210938 7.644531 -0.191406 7.6875 -0.171875 C 7.726562 -0.148438 7.75 -0.113281 7.75 -0.0625 C 7.757812 -0.0507812 7.753906 -0.0351562 7.734375 -0.015625 C 7.710938 0.00390625 7.695312 0.015625 7.6875 0.015625 C 7.675781 0.015625 7.664062 0.015625 7.65625 0.015625 C 7.644531 0.0234375 7.632812 0.03125 7.625 0.03125 C 7.570312 0.03125 7.523438 0.03125 7.484375 0.03125 C 7.441406 0.03125 7.394531 0.03125 7.34375 0.03125 C 7.320312 0.03125 7.296875 0.03125 7.265625 0.03125 C 7.234375 0.03125 7.203125 0.0351562 7.171875 0.046875 C 7.117188 0.046875 7.066406 0.046875 7.015625 0.046875 C 6.960938 0.0546875 6.910156 0.0625 6.859375 0.0625 C 6.578125 0.0625 6.289062 0.0625 6 0.0625 C 5.707031 0.0625 5.414062 0.0625 5.125 0.0625 C 5.113281 0.0625 5.097656 0.0625 5.078125 0.0625 C 5.066406 0.0625 5.054688 0.0625 5.046875 0.0625 C 5.015625 0.0507812 4.984375 0.0351562 4.953125 0.015625 C 4.941406 -0.015625 4.941406 -0.046875 4.953125 -0.078125 C 4.960938 -0.109375 4.984375 -0.128906 5.015625 -0.140625 C 5.023438 -0.140625 5.035156 -0.140625 5.046875 -0.140625 C 5.054688 -0.148438 5.0625 -0.15625 5.0625 -0.15625 C 5.101562 -0.15625 5.140625 -0.15625 5.171875 -0.15625 C 5.210938 -0.164062 5.25 -0.175781 5.28125 -0.1875 C 5.3125 -0.1875 5.335938 -0.191406 5.359375 -0.203125 C 5.390625 -0.210938 5.421875 -0.222656 5.453125 -0.234375 C 5.492188 -0.253906 5.503906 -0.28125 5.484375 -0.3125 C 5.460938 -0.34375 5.445312 -0.375 5.4375 -0.40625 C 5.363281 -0.507812 5.289062 -0.628906 5.21875 -0.765625 C 5.195312 -0.816406 5.171875 -0.859375 5.140625 -0.890625 C 5.117188 -0.929688 5.09375 -0.976562 5.0625 -1.03125 C 4.882812 -1.289062 4.703125 -1.5625 4.515625 -1.84375 C 4.503906 -1.863281 4.488281 -1.882812 4.46875 -1.90625 C 4.457031 -1.9375 4.445312 -1.96875 4.4375 -2 C 4.40625 -2.050781 4.367188 -2.101562 4.328125 -2.15625 C 4.296875 -2.21875 4.265625 -2.273438 4.234375 -2.328125 C 4.203125 -2.378906 4.171875 -2.421875 4.140625 -2.453125 C 4.109375 -2.492188 4.082031 -2.539062 4.0625 -2.59375 C 4.050781 -2.625 4.035156 -2.65625 4.015625 -2.6875 C 3.992188 -2.71875 3.972656 -2.742188 3.953125 -2.765625 C 3.890625 -2.847656 3.832031 -2.925781 3.78125 -3 C 3.726562 -3.082031 3.675781 -3.164062 3.625 -3.25 C 3.601562 -3.289062 3.582031 -3.328125 3.5625 -3.359375 C 3.550781 -3.390625 3.53125 -3.421875 3.5 -3.453125 C 3.46875 -3.492188 3.429688 -3.507812 3.390625 -3.5 C 3.304688 -3.46875 3.238281 -3.425781 3.1875 -3.375 C 3.144531 -3.332031 3.101562 -3.289062 3.0625 -3.25 C 3.03125 -3.21875 3 -3.1875 2.96875 -3.15625 C 2.9375 -3.132812 2.910156 -3.101562 2.890625 -3.0625 C 2.847656 -3.019531 2.804688 -2.972656 2.765625 -2.921875 C 2.734375 -2.878906 2.695312 -2.835938 2.65625 -2.796875 C 2.632812 -2.773438 2.625 -2.742188 2.625 -2.703125 C 2.625 -2.535156 2.617188 -2.367188 2.609375 -2.203125 C 2.609375 -2.046875 2.609375 -1.890625 2.609375 -1.734375 C 2.597656 -1.335938 2.597656 -0.941406 2.609375 -0.546875 C 2.609375 -0.535156 2.609375 -0.523438 2.609375 -0.515625 C 2.609375 -0.503906 2.609375 -0.492188 2.609375 -0.484375 C 2.617188 -0.441406 2.644531 -0.40625 2.6875 -0.375 C 2.738281 -0.34375 2.796875 -0.3125 2.859375 -0.28125 C 2.929688 -0.25 3 -0.226562 3.0625 -0.21875 C 3.101562 -0.21875 3.144531 -0.207031 3.1875 -0.1875 C 3.207031 -0.1875 3.222656 -0.179688 3.234375 -0.171875 C 3.253906 -0.160156 3.269531 -0.144531 3.28125 -0.125 C 3.289062 -0.113281 3.285156 -0.0976562 3.265625 -0.078125 C 3.253906 -0.0664062 3.242188 -0.0546875 3.234375 -0.046875 C 3.222656 -0.046875 3.210938 -0.046875 3.203125 -0.046875 C 3.191406 -0.046875 3.179688 -0.046875 3.171875 -0.046875 C 3.140625 -0.0351562 3.101562 -0.03125 3.0625 -0.03125 C 3.03125 -0.03125 2.992188 -0.03125 2.953125 -0.03125 C 2.773438 -0.03125 2.597656 -0.03125 2.421875 -0.03125 C 2.242188 -0.03125 2.066406 -0.03125 1.890625 -0.03125 C 1.859375 -0.03125 1.820312 -0.03125 1.78125 -0.03125 C 1.75 -0.03125 1.71875 -0.0234375 1.6875 -0.015625 C 1.65625 -0.00390625 1.625 0 1.59375 0 C 1.5625 0.0078125 1.53125 0.015625 1.5 0.015625 C 1.320312 0.015625 1.140625 0.015625 0.953125 0.015625 C 0.773438 0.015625 0.59375 0.015625 0.40625 0.015625 C 0.394531 0.015625 0.382812 0.0078125 0.375 0 C 0.351562 0 0.335938 -0.0078125 0.328125 -0.03125 C 0.316406 -0.0507812 0.316406 -0.0703125 0.328125 -0.09375 C 0.347656 -0.125 0.375 -0.144531 0.40625 -0.15625 C 0.476562 -0.1875 0.550781 -0.207031 0.625 -0.21875 C 0.695312 -0.238281 0.765625 -0.257812 0.828125 -0.28125 C 0.898438 -0.3125 0.960938 -0.34375 1.015625 -0.375 C 1.066406 -0.414062 1.09375 -0.457031 1.09375 -0.5 C 1.101562 -0.53125 1.109375 -0.554688 1.109375 -0.578125 C 1.109375 -0.597656 1.113281 -0.625 1.125 -0.65625 C 1.144531 -0.726562 1.15625 -0.800781 1.15625 -0.875 C 1.15625 -0.945312 1.15625 -1.019531 1.15625 -1.09375 C 1.15625 -1.488281 1.15625 -1.875 1.15625 -2.25 C 1.15625 -2.625 1.160156 -3.003906 1.171875 -3.390625 C 1.179688 -3.703125 1.1875 -4.015625 1.1875 -4.328125 C 1.1875 -4.640625 1.1875 -4.945312 1.1875 -5.25 C 1.1875 -5.28125 1.1875 -5.3125 1.1875 -5.34375 C 1.1875 -5.375 1.1875 -5.40625 1.1875 -5.4375 C 1.175781 -5.613281 1.171875 -5.789062 1.171875 -5.96875 C 1.171875 -6.144531 1.171875 -6.320312 1.171875 -6.5 C 1.171875 -6.507812 1.164062 -6.519531 1.15625 -6.53125 C 1.15625 -6.539062 1.15625 -6.550781 1.15625 -6.5625 C 1.144531 -6.601562 1.132812 -6.625 1.125 -6.625 C 1.101562 -6.644531 1.085938 -6.65625 1.078125 -6.65625 C 1.066406 -6.664062 1.054688 -6.675781 1.046875 -6.6875 C 0.972656 -6.707031 0.90625 -6.722656 0.84375 -6.734375 C 0.789062 -6.753906 0.726562 -6.765625 0.65625 -6.765625 C 0.632812 -6.765625 0.601562 -6.769531 0.5625 -6.78125 C 0.550781 -6.789062 0.539062 -6.804688 0.53125 -6.828125 C 0.519531 -6.847656 0.523438 -6.863281 0.546875 -6.875 C 0.566406 -6.914062 0.597656 -6.9375 0.640625 -6.9375 C 0.660156 -6.945312 0.679688 -6.953125 0.703125 -6.953125 C 0.722656 -6.953125 0.742188 -6.953125 0.765625 -6.953125 C 0.867188 -6.953125 0.972656 -6.953125 1.078125 -6.953125 C 1.179688 -6.953125 1.289062 -6.953125 1.40625 -6.953125 C 1.675781 -6.953125 1.945312 -6.953125 2.21875 -6.953125 C 2.5 -6.953125 2.773438 -6.953125 3.046875 -6.953125 C 3.078125 -6.953125 3.101562 -6.953125 3.125 -6.953125 C 3.144531 -6.953125 3.171875 -6.945312 3.203125 -6.9375 C 3.210938 -6.9375 3.222656 -6.929688 3.234375 -6.921875 C 3.253906 -6.921875 3.269531 -6.914062 3.28125 -6.90625 C 3.289062 -6.894531 3.296875 -6.878906 3.296875 -6.859375 C 3.296875 -6.835938 3.285156 -6.820312 3.265625 -6.8125 C 3.242188 -6.800781 3.21875 -6.789062 3.1875 -6.78125 C 3.164062 -6.769531 3.144531 -6.765625 3.125 -6.765625 C 3.070312 -6.765625 3.015625 -6.753906 2.953125 -6.734375 C 2.898438 -6.710938 2.847656 -6.691406 2.796875 -6.671875 Z M 2.796875 -6.671875 "/></g></g></g><g fill="#000000" fill-opacity="1"><g transform="translate(74.480827, 63.249992)"><g><path d="M 1.59375 0.0625 C 1.46875 0.0625 1.3125 0.0625 1.125 0.0625 C 0.9375 0.0625 0.734375 0.0664062 0.515625 0.078125 C 0.492188 0.078125 0.46875 0.0703125 0.4375 0.0625 C 0.414062 0.0625 0.394531 0.0625 0.375 0.0625 C 0.351562 0.0625 0.335938 0.046875 0.328125 0.015625 C 0.316406 0.00390625 0.320312 -0.0078125 0.34375 -0.03125 C 0.363281 -0.0625 0.382812 -0.0820312 0.40625 -0.09375 C 0.445312 -0.101562 0.484375 -0.113281 0.515625 -0.125 C 0.554688 -0.144531 0.597656 -0.15625 0.640625 -0.15625 C 0.679688 -0.175781 0.722656 -0.191406 0.765625 -0.203125 C 0.804688 -0.222656 0.851562 -0.234375 0.90625 -0.234375 C 0.976562 -0.253906 1.035156 -0.296875 1.078125 -0.359375 C 1.117188 -0.398438 1.140625 -0.441406 1.140625 -0.484375 C 1.148438 -0.554688 1.15625 -0.628906 1.15625 -0.703125 C 1.15625 -0.785156 1.160156 -0.867188 1.171875 -0.953125 C 1.171875 -1.066406 1.171875 -1.179688 1.171875 -1.296875 C 1.171875 -1.421875 1.175781 -1.550781 1.1875 -1.6875 C 1.1875 -1.726562 1.1875 -1.769531 1.1875 -1.8125 C 1.1875 -1.851562 1.1875 -1.898438 1.1875 -1.953125 C 1.195312 -1.984375 1.203125 -2.015625 1.203125 -2.046875 C 1.203125 -2.078125 1.203125 -2.101562 1.203125 -2.125 C 1.203125 -2.257812 1.203125 -2.394531 1.203125 -2.53125 C 1.203125 -2.664062 1.203125 -2.800781 1.203125 -2.9375 C 1.203125 -3.300781 1.203125 -3.671875 1.203125 -4.046875 C 1.203125 -4.429688 1.203125 -4.8125 1.203125 -5.1875 C 1.203125 -5.289062 1.203125 -5.398438 1.203125 -5.515625 C 1.203125 -5.628906 1.203125 -5.738281 1.203125 -5.84375 C 1.203125 -5.90625 1.203125 -5.960938 1.203125 -6.015625 C 1.203125 -6.066406 1.195312 -6.125 1.1875 -6.1875 C 1.1875 -6.25 1.179688 -6.304688 1.171875 -6.359375 C 1.171875 -6.421875 1.171875 -6.484375 1.171875 -6.546875 C 1.160156 -6.597656 1.132812 -6.640625 1.09375 -6.671875 C 1.082031 -6.679688 1.070312 -6.6875 1.0625 -6.6875 C 1.03125 -6.695312 0.992188 -6.707031 0.953125 -6.71875 C 0.921875 -6.726562 0.890625 -6.738281 0.859375 -6.75 C 0.828125 -6.75 0.800781 -6.75 0.78125 -6.75 C 0.757812 -6.757812 0.734375 -6.765625 0.703125 -6.765625 C 0.691406 -6.773438 0.675781 -6.78125 0.65625 -6.78125 C 0.632812 -6.789062 0.613281 -6.800781 0.59375 -6.8125 C 0.570312 -6.8125 0.554688 -6.820312 0.546875 -6.84375 C 0.546875 -6.863281 0.550781 -6.882812 0.5625 -6.90625 C 0.570312 -6.90625 0.578125 -6.90625 0.578125 -6.90625 C 0.578125 -6.914062 0.582031 -6.925781 0.59375 -6.9375 C 0.632812 -6.957031 0.679688 -6.972656 0.734375 -6.984375 C 0.753906 -6.984375 0.769531 -6.984375 0.78125 -6.984375 C 0.800781 -6.984375 0.820312 -6.984375 0.84375 -6.984375 C 1.226562 -6.984375 1.609375 -6.984375 1.984375 -6.984375 C 2.359375 -6.984375 2.734375 -6.984375 3.109375 -6.984375 C 3.128906 -6.984375 3.148438 -6.984375 3.171875 -6.984375 C 3.191406 -6.984375 3.210938 -6.976562 3.234375 -6.96875 C 3.273438 -6.957031 3.300781 -6.9375 3.3125 -6.90625 C 3.332031 -6.894531 3.335938 -6.878906 3.328125 -6.859375 C 3.316406 -6.835938 3.304688 -6.820312 3.296875 -6.8125 C 3.253906 -6.800781 3.207031 -6.789062 3.15625 -6.78125 C 3.113281 -6.769531 3.066406 -6.757812 3.015625 -6.75 C 2.984375 -6.738281 2.957031 -6.726562 2.9375 -6.71875 C 2.914062 -6.707031 2.894531 -6.695312 2.875 -6.6875 C 2.8125 -6.664062 2.753906 -6.617188 2.703125 -6.546875 C 2.691406 -6.523438 2.6875 -6.503906 2.6875 -6.484375 C 2.6875 -6.460938 2.6875 -6.441406 2.6875 -6.421875 C 2.6875 -6.410156 2.6875 -6.394531 2.6875 -6.375 C 2.675781 -6.300781 2.671875 -6.234375 2.671875 -6.171875 C 2.671875 -6.109375 2.664062 -6.046875 2.65625 -5.984375 C 2.644531 -5.953125 2.640625 -5.921875 2.640625 -5.890625 C 2.640625 -5.859375 2.640625 -5.828125 2.640625 -5.796875 C 2.628906 -5.117188 2.628906 -4.4375 2.640625 -3.75 C 2.640625 -3.707031 2.648438 -3.671875 2.671875 -3.640625 C 2.679688 -3.609375 2.691406 -3.59375 2.703125 -3.59375 C 2.722656 -3.59375 2.738281 -3.59375 2.75 -3.59375 C 2.757812 -3.59375 2.765625 -3.59375 2.765625 -3.59375 C 2.878906 -3.582031 2.988281 -3.578125 3.09375 -3.578125 C 3.195312 -3.585938 3.300781 -3.59375 3.40625 -3.59375 C 3.425781 -3.59375 3.4375 -3.59375 3.4375 -3.59375 C 3.445312 -3.59375 3.457031 -3.59375 3.46875 -3.59375 C 3.5625 -3.613281 3.65625 -3.625 3.75 -3.625 C 3.84375 -3.625 3.929688 -3.628906 4.015625 -3.640625 C 4.210938 -3.640625 4.40625 -3.640625 4.59375 -3.640625 C 4.78125 -3.648438 4.96875 -3.65625 5.15625 -3.65625 C 5.195312 -3.65625 5.238281 -3.65625 5.28125 -3.65625 C 5.320312 -3.65625 5.367188 -3.65625 5.421875 -3.65625 C 5.429688 -3.65625 5.453125 -3.664062 5.484375 -3.6875 C 5.515625 -3.695312 5.53125 -3.71875 5.53125 -3.75 C 5.539062 -3.757812 5.546875 -3.78125 5.546875 -3.8125 C 5.546875 -3.925781 5.546875 -4.046875 5.546875 -4.171875 C 5.546875 -4.296875 5.546875 -4.421875 5.546875 -4.546875 C 5.554688 -4.648438 5.554688 -4.757812 5.546875 -4.875 C 5.546875 -5 5.546875 -5.117188 5.546875 -5.234375 C 5.554688 -5.378906 5.554688 -5.519531 5.546875 -5.65625 C 5.546875 -5.800781 5.539062 -5.945312 5.53125 -6.09375 C 5.53125 -6.164062 5.523438 -6.234375 5.515625 -6.296875 C 5.503906 -6.359375 5.492188 -6.421875 5.484375 -6.484375 C 5.484375 -6.503906 5.476562 -6.519531 5.46875 -6.53125 C 5.46875 -6.539062 5.460938 -6.550781 5.453125 -6.5625 C 5.410156 -6.625 5.351562 -6.664062 5.28125 -6.6875 C 5.226562 -6.695312 5.175781 -6.707031 5.125 -6.71875 C 5.082031 -6.738281 5.035156 -6.753906 4.984375 -6.765625 C 4.941406 -6.773438 4.910156 -6.789062 4.890625 -6.8125 C 4.878906 -6.832031 4.875 -6.851562 4.875 -6.875 C 4.882812 -6.894531 4.894531 -6.910156 4.90625 -6.921875 C 4.914062 -6.929688 4.925781 -6.9375 4.9375 -6.9375 C 4.957031 -6.9375 4.988281 -6.9375 5.03125 -6.9375 C 5.425781 -6.9375 5.828125 -6.9375 6.234375 -6.9375 C 6.640625 -6.9375 7.039062 -6.9375 7.4375 -6.9375 C 7.445312 -6.9375 7.460938 -6.9375 7.484375 -6.9375 C 7.503906 -6.9375 7.519531 -6.9375 7.53125 -6.9375 C 7.570312 -6.925781 7.601562 -6.90625 7.625 -6.875 C 7.644531 -6.863281 7.648438 -6.847656 7.640625 -6.828125 C 7.640625 -6.804688 7.628906 -6.789062 7.609375 -6.78125 C 7.578125 -6.769531 7.550781 -6.765625 7.53125 -6.765625 C 7.46875 -6.753906 7.40625 -6.738281 7.34375 -6.71875 C 7.289062 -6.707031 7.234375 -6.695312 7.171875 -6.6875 C 7.148438 -6.6875 7.128906 -6.679688 7.109375 -6.671875 C 7.097656 -6.660156 7.082031 -6.644531 7.0625 -6.625 C 7.03125 -6.601562 7.015625 -6.582031 7.015625 -6.5625 C 7.015625 -6.550781 7.015625 -6.535156 7.015625 -6.515625 C 7.015625 -6.492188 7.015625 -6.472656 7.015625 -6.453125 C 7.015625 -6.390625 7.015625 -6.320312 7.015625 -6.25 C 7.015625 -6.1875 7.015625 -6.117188 7.015625 -6.046875 C 7.015625 -6.003906 7.015625 -5.960938 7.015625 -5.921875 C 7.015625 -5.890625 7.007812 -5.851562 7 -5.8125 C 6.988281 -5.53125 6.984375 -5.238281 6.984375 -4.9375 C 6.984375 -4.644531 6.988281 -4.351562 7 -4.0625 C 7 -3.726562 7 -3.398438 7 -3.078125 C 7 -2.753906 7.003906 -2.429688 7.015625 -2.109375 C 7.015625 -1.910156 7.015625 -1.710938 7.015625 -1.515625 C 7.015625 -1.316406 7.015625 -1.117188 7.015625 -0.921875 C 7.015625 -0.835938 7.023438 -0.75 7.046875 -0.65625 C 7.054688 -0.613281 7.0625 -0.570312 7.0625 -0.53125 C 7.0625 -0.5 7.0625 -0.46875 7.0625 -0.4375 C 7.070312 -0.382812 7.101562 -0.34375 7.15625 -0.3125 C 7.175781 -0.300781 7.195312 -0.289062 7.21875 -0.28125 C 7.238281 -0.269531 7.265625 -0.253906 7.296875 -0.234375 C 7.328125 -0.234375 7.359375 -0.222656 7.390625 -0.203125 C 7.429688 -0.191406 7.472656 -0.1875 7.515625 -0.1875 C 7.566406 -0.175781 7.613281 -0.160156 7.65625 -0.140625 C 7.707031 -0.117188 7.757812 -0.0976562 7.8125 -0.078125 C 7.820312 -0.0664062 7.832031 -0.0507812 7.84375 -0.03125 C 7.851562 -0.0195312 7.851562 -0.00390625 7.84375 0.015625 C 7.832031 0.046875 7.816406 0.0625 7.796875 0.0625 C 7.785156 0.0625 7.769531 0.0625 7.75 0.0625 C 7.738281 0.0625 7.722656 0.0625 7.703125 0.0625 C 7.546875 0.0625 7.382812 0.0625 7.21875 0.0625 C 7.0625 0.0625 6.898438 0.0625 6.734375 0.0625 C 6.660156 0.0625 6.582031 0.0546875 6.5 0.046875 C 6.46875 0.0351562 6.441406 0.03125 6.421875 0.03125 C 6.398438 0.03125 6.375 0.03125 6.34375 0.03125 C 6.1875 0.03125 6.03125 0.03125 5.875 0.03125 C 5.71875 0.03125 5.5625 0.03125 5.40625 0.03125 C 5.332031 0.03125 5.265625 0.03125 5.203125 0.03125 C 5.140625 0.03125 5.078125 0.0234375 5.015625 0.015625 C 4.972656 0.015625 4.941406 0.0078125 4.921875 0 C 4.898438 -0.0078125 4.882812 -0.0195312 4.875 -0.03125 C 4.875 -0.0507812 4.878906 -0.0703125 4.890625 -0.09375 C 4.898438 -0.113281 4.914062 -0.125 4.9375 -0.125 C 4.945312 -0.132812 4.957031 -0.140625 4.96875 -0.140625 C 4.988281 -0.148438 5.003906 -0.15625 5.015625 -0.15625 C 5.097656 -0.175781 5.175781 -0.195312 5.25 -0.21875 C 5.332031 -0.25 5.40625 -0.28125 5.46875 -0.3125 C 5.519531 -0.332031 5.546875 -0.375 5.546875 -0.4375 C 5.554688 -0.59375 5.5625 -0.742188 5.5625 -0.890625 C 5.5625 -1.046875 5.5625 -1.203125 5.5625 -1.359375 C 5.550781 -1.648438 5.546875 -1.9375 5.546875 -2.21875 C 5.546875 -2.507812 5.546875 -2.800781 5.546875 -3.09375 C 5.546875 -3.101562 5.546875 -3.113281 5.546875 -3.125 C 5.546875 -3.144531 5.546875 -3.164062 5.546875 -3.1875 C 5.546875 -3.238281 5.519531 -3.265625 5.46875 -3.265625 C 5.445312 -3.265625 5.425781 -3.265625 5.40625 -3.265625 C 5.382812 -3.273438 5.363281 -3.28125 5.34375 -3.28125 C 5.195312 -3.28125 5.050781 -3.28125 4.90625 -3.28125 C 4.757812 -3.28125 4.609375 -3.285156 4.453125 -3.296875 C 4.328125 -3.296875 4.191406 -3.289062 4.046875 -3.28125 C 3.910156 -3.28125 3.773438 -3.273438 3.640625 -3.265625 C 3.617188 -3.265625 3.597656 -3.265625 3.578125 -3.265625 C 3.554688 -3.265625 3.535156 -3.257812 3.515625 -3.25 C 3.460938 -3.238281 3.40625 -3.234375 3.34375 -3.234375 C 3.28125 -3.234375 3.21875 -3.226562 3.15625 -3.21875 C 3.082031 -3.21875 3.007812 -3.210938 2.9375 -3.203125 C 2.875 -3.203125 2.804688 -3.203125 2.734375 -3.203125 C 2.671875 -3.191406 2.640625 -3.15625 2.640625 -3.09375 C 2.640625 -3.09375 2.632812 -3.085938 2.625 -3.078125 C 2.625 -3.066406 2.625 -3.054688 2.625 -3.046875 C 2.625 -3.003906 2.625 -2.960938 2.625 -2.921875 C 2.625 -2.890625 2.628906 -2.859375 2.640625 -2.828125 C 2.640625 -2.742188 2.640625 -2.65625 2.640625 -2.5625 C 2.640625 -2.476562 2.640625 -2.394531 2.640625 -2.3125 C 2.628906 -2.132812 2.625 -1.957031 2.625 -1.78125 C 2.625 -1.613281 2.625 -1.441406 2.625 -1.265625 C 2.625 -1.128906 2.625 -0.992188 2.625 -0.859375 C 2.625 -0.722656 2.625 -0.585938 2.625 -0.453125 C 2.625 -0.378906 2.65625 -0.332031 2.71875 -0.3125 C 2.789062 -0.28125 2.863281 -0.25 2.9375 -0.21875 C 3.007812 -0.1875 3.082031 -0.164062 3.15625 -0.15625 C 3.175781 -0.15625 3.191406 -0.148438 3.203125 -0.140625 C 3.222656 -0.128906 3.242188 -0.125 3.265625 -0.125 C 3.296875 -0.113281 3.316406 -0.09375 3.328125 -0.0625 C 3.335938 -0.03125 3.328125 -0.00390625 3.296875 0.015625 C 3.273438 0.0234375 3.265625 0.03125 3.265625 0.03125 C 3.242188 0.0390625 3.222656 0.046875 3.203125 0.046875 C 3.179688 0.046875 3.160156 0.046875 3.140625 0.046875 C 3.117188 0.0546875 3.097656 0.0625 3.078125 0.0625 C 3.054688 0.0625 3.035156 0.0625 3.015625 0.0625 C 2.804688 0.0625 2.59375 0.0625 2.375 0.0625 C 2.15625 0.0625 1.894531 0.0625 1.59375 0.0625 Z M 1.59375 0.0625 "/></g></g></g><g fill="#000000" fill-opacity="1"><g transform="translate(84.65759, 63.249992)"><g><path d="M 0.984375 -0.3125 C 1.035156 -0.34375 1.078125 -0.375 1.109375 -0.40625 C 1.160156 -0.457031 1.1875 -0.5 1.1875 -0.53125 C 1.207031 -0.582031 1.222656 -0.628906 1.234375 -0.671875 C 1.253906 -0.722656 1.273438 -0.769531 1.296875 -0.8125 C 1.367188 -1.050781 1.441406 -1.289062 1.515625 -1.53125 C 1.597656 -1.769531 1.679688 -2.003906 1.765625 -2.234375 C 1.785156 -2.304688 1.804688 -2.375 1.828125 -2.4375 C 1.835938 -2.476562 1.84375 -2.507812 1.84375 -2.53125 C 1.863281 -2.59375 1.882812 -2.65625 1.90625 -2.71875 C 1.925781 -2.78125 1.941406 -2.84375 1.953125 -2.90625 C 1.972656 -2.976562 1.992188 -3.046875 2.015625 -3.109375 C 2.035156 -3.171875 2.054688 -3.238281 2.078125 -3.3125 C 2.085938 -3.363281 2.101562 -3.414062 2.125 -3.46875 C 2.144531 -3.519531 2.160156 -3.578125 2.171875 -3.640625 C 2.171875 -3.648438 2.171875 -3.660156 2.171875 -3.671875 C 2.179688 -3.679688 2.1875 -3.691406 2.1875 -3.703125 C 2.238281 -3.847656 2.28125 -3.988281 2.3125 -4.125 C 2.351562 -4.269531 2.394531 -4.414062 2.4375 -4.5625 C 2.46875 -4.65625 2.492188 -4.742188 2.515625 -4.828125 C 2.546875 -4.910156 2.578125 -5 2.609375 -5.09375 C 2.628906 -5.15625 2.648438 -5.21875 2.671875 -5.28125 C 2.691406 -5.34375 2.707031 -5.40625 2.71875 -5.46875 C 2.726562 -5.519531 2.738281 -5.566406 2.75 -5.609375 C 2.757812 -5.648438 2.769531 -5.691406 2.78125 -5.734375 C 2.800781 -5.773438 2.816406 -5.816406 2.828125 -5.859375 C 2.835938 -5.910156 2.847656 -5.957031 2.859375 -6 C 2.867188 -6.050781 2.878906 -6.097656 2.890625 -6.140625 C 2.910156 -6.191406 2.925781 -6.242188 2.9375 -6.296875 C 2.945312 -6.328125 2.953125 -6.363281 2.953125 -6.40625 C 2.960938 -6.445312 2.96875 -6.488281 2.96875 -6.53125 C 2.96875 -6.539062 2.96875 -6.550781 2.96875 -6.5625 C 2.96875 -6.582031 2.96875 -6.601562 2.96875 -6.625 C 2.957031 -6.695312 2.914062 -6.738281 2.84375 -6.75 C 2.800781 -6.75 2.757812 -6.75 2.71875 -6.75 C 2.675781 -6.75 2.628906 -6.75 2.578125 -6.75 C 2.554688 -6.75 2.523438 -6.75 2.484375 -6.75 C 2.453125 -6.75 2.421875 -6.753906 2.390625 -6.765625 C 2.378906 -6.765625 2.363281 -6.773438 2.34375 -6.796875 C 2.320312 -6.816406 2.328125 -6.84375 2.359375 -6.875 C 2.378906 -6.894531 2.394531 -6.90625 2.40625 -6.90625 C 2.414062 -6.914062 2.425781 -6.921875 2.4375 -6.921875 C 2.457031 -6.921875 2.472656 -6.925781 2.484375 -6.9375 C 2.554688 -6.9375 2.617188 -6.9375 2.671875 -6.9375 C 2.734375 -6.9375 2.796875 -6.941406 2.859375 -6.953125 C 2.890625 -6.953125 2.914062 -6.953125 2.9375 -6.953125 C 2.957031 -6.953125 2.984375 -6.957031 3.015625 -6.96875 C 3.046875 -6.976562 3.078125 -6.984375 3.109375 -6.984375 C 3.148438 -6.984375 3.1875 -6.984375 3.21875 -6.984375 C 3.3125 -6.984375 3.40625 -6.984375 3.5 -6.984375 C 3.59375 -6.984375 3.679688 -6.984375 3.765625 -6.984375 C 3.796875 -6.984375 3.820312 -6.984375 3.84375 -6.984375 C 3.863281 -6.984375 3.890625 -6.976562 3.921875 -6.96875 C 3.992188 -6.957031 4.0625 -6.953125 4.125 -6.953125 C 4.195312 -6.953125 4.269531 -6.945312 4.34375 -6.9375 C 4.363281 -6.9375 4.378906 -6.9375 4.390625 -6.9375 C 4.410156 -6.9375 4.425781 -6.9375 4.4375 -6.9375 C 4.539062 -6.914062 4.625 -6.859375 4.6875 -6.765625 C 4.695312 -6.722656 4.707031 -6.675781 4.71875 -6.625 C 4.738281 -6.582031 4.765625 -6.546875 4.796875 -6.515625 C 4.828125 -6.472656 4.847656 -6.425781 4.859375 -6.375 C 4.878906 -6.320312 4.90625 -6.265625 4.9375 -6.203125 C 4.945312 -6.160156 4.960938 -6.117188 4.984375 -6.078125 C 5.003906 -6.035156 5.023438 -5.988281 5.046875 -5.9375 C 5.078125 -5.820312 5.113281 -5.703125 5.15625 -5.578125 C 5.207031 -5.460938 5.253906 -5.347656 5.296875 -5.234375 C 5.316406 -5.191406 5.332031 -5.144531 5.34375 -5.09375 C 5.363281 -5.03125 5.390625 -4.960938 5.421875 -4.890625 C 5.453125 -4.828125 5.484375 -4.757812 5.515625 -4.6875 C 5.578125 -4.539062 5.628906 -4.394531 5.671875 -4.25 C 5.722656 -4.113281 5.769531 -3.96875 5.8125 -3.8125 C 5.832031 -3.75 5.851562 -3.679688 5.875 -3.609375 C 5.894531 -3.546875 5.914062 -3.476562 5.9375 -3.40625 C 5.945312 -3.40625 5.953125 -3.394531 5.953125 -3.375 C 5.972656 -3.332031 5.992188 -3.289062 6.015625 -3.25 C 6.035156 -3.207031 6.050781 -3.15625 6.0625 -3.09375 C 6.082031 -3.050781 6.101562 -3.003906 6.125 -2.953125 C 6.144531 -2.898438 6.164062 -2.847656 6.1875 -2.796875 C 6.207031 -2.742188 6.226562 -2.695312 6.25 -2.65625 C 6.269531 -2.613281 6.289062 -2.566406 6.3125 -2.515625 C 6.375 -2.410156 6.425781 -2.304688 6.46875 -2.203125 C 6.507812 -2.097656 6.550781 -1.988281 6.59375 -1.875 C 6.601562 -1.851562 6.613281 -1.828125 6.625 -1.796875 C 6.632812 -1.773438 6.644531 -1.753906 6.65625 -1.734375 C 6.707031 -1.617188 6.742188 -1.515625 6.765625 -1.421875 C 6.804688 -1.273438 6.851562 -1.132812 6.90625 -1 C 6.957031 -0.863281 7.007812 -0.726562 7.0625 -0.59375 C 7.082031 -0.550781 7.09375 -0.523438 7.09375 -0.515625 C 7.144531 -0.421875 7.207031 -0.363281 7.28125 -0.34375 C 7.3125 -0.332031 7.34375 -0.320312 7.375 -0.3125 C 7.414062 -0.300781 7.453125 -0.289062 7.484375 -0.28125 C 7.523438 -0.28125 7.5625 -0.269531 7.59375 -0.25 C 7.632812 -0.238281 7.671875 -0.226562 7.703125 -0.21875 C 7.734375 -0.207031 7.753906 -0.1875 7.765625 -0.15625 C 7.785156 -0.132812 7.785156 -0.113281 7.765625 -0.09375 C 7.742188 -0.0195312 7.703125 0.015625 7.640625 0.015625 C 7.628906 0.015625 7.613281 0.015625 7.59375 0.015625 C 7.570312 0.015625 7.554688 0.015625 7.546875 0.015625 C 7.304688 0.015625 7.0625 0.015625 6.8125 0.015625 C 6.5625 0.015625 6.304688 0.015625 6.046875 0.015625 C 5.960938 0.0234375 5.875 0.03125 5.78125 0.03125 C 5.695312 0.03125 5.609375 0.0351562 5.515625 0.046875 C 5.429688 0.0546875 5.347656 0.0625 5.265625 0.0625 C 5.179688 0.0625 5.097656 0.0625 5.015625 0.0625 C 4.992188 0.0507812 4.972656 0.0390625 4.953125 0.03125 C 4.941406 0.0195312 4.929688 0.00390625 4.921875 -0.015625 C 4.910156 -0.0351562 4.90625 -0.0625 4.90625 -0.09375 C 4.914062 -0.132812 4.9375 -0.15625 4.96875 -0.15625 C 4.976562 -0.15625 4.988281 -0.15625 5 -0.15625 C 5.007812 -0.164062 5.019531 -0.171875 5.03125 -0.171875 C 5.09375 -0.179688 5.148438 -0.191406 5.203125 -0.203125 C 5.265625 -0.210938 5.328125 -0.222656 5.390625 -0.234375 C 5.421875 -0.234375 5.445312 -0.242188 5.46875 -0.265625 C 5.5 -0.285156 5.523438 -0.300781 5.546875 -0.3125 C 5.554688 -0.320312 5.566406 -0.332031 5.578125 -0.34375 C 5.585938 -0.363281 5.597656 -0.378906 5.609375 -0.390625 C 5.617188 -0.421875 5.625 -0.445312 5.625 -0.46875 C 5.59375 -0.53125 5.566406 -0.59375 5.546875 -0.65625 C 5.523438 -0.726562 5.503906 -0.800781 5.484375 -0.875 C 5.441406 -0.988281 5.410156 -1.097656 5.390625 -1.203125 C 5.378906 -1.253906 5.367188 -1.289062 5.359375 -1.3125 C 5.328125 -1.425781 5.289062 -1.53125 5.25 -1.625 C 5.207031 -1.726562 5.164062 -1.832031 5.125 -1.9375 C 5.101562 -2.007812 5.066406 -2.082031 5.015625 -2.15625 C 4.992188 -2.195312 4.953125 -2.21875 4.890625 -2.21875 C 4.878906 -2.21875 4.867188 -2.21875 4.859375 -2.21875 C 4.847656 -2.21875 4.835938 -2.21875 4.828125 -2.21875 C 4.785156 -2.207031 4.738281 -2.203125 4.6875 -2.203125 C 4.644531 -2.203125 4.597656 -2.203125 4.546875 -2.203125 C 4.347656 -2.203125 4.144531 -2.195312 3.9375 -2.1875 C 3.738281 -2.1875 3.539062 -2.179688 3.34375 -2.171875 C 3.3125 -2.171875 3.28125 -2.171875 3.25 -2.171875 C 3.21875 -2.171875 3.1875 -2.164062 3.15625 -2.15625 C 3.007812 -2.132812 2.859375 -2.125 2.703125 -2.125 C 2.628906 -2.125 2.5625 -2.125 2.5 -2.125 C 2.4375 -2.125 2.367188 -2.113281 2.296875 -2.09375 C 2.273438 -2.09375 2.25 -2.082031 2.21875 -2.0625 C 2.195312 -2.0625 2.1875 -2.050781 2.1875 -2.03125 C 2.164062 -2 2.15625 -1.960938 2.15625 -1.921875 C 2.15625 -1.890625 2.144531 -1.851562 2.125 -1.8125 C 2.101562 -1.78125 2.085938 -1.742188 2.078125 -1.703125 C 2.066406 -1.671875 2.054688 -1.632812 2.046875 -1.59375 C 2.046875 -1.5625 2.035156 -1.523438 2.015625 -1.484375 C 2.003906 -1.453125 1.992188 -1.421875 1.984375 -1.390625 C 1.972656 -1.335938 1.960938 -1.289062 1.953125 -1.25 C 1.941406 -1.21875 1.925781 -1.175781 1.90625 -1.125 C 1.90625 -1.070312 1.894531 -1.015625 1.875 -0.953125 C 1.851562 -0.898438 1.835938 -0.847656 1.828125 -0.796875 C 1.816406 -0.765625 1.804688 -0.726562 1.796875 -0.6875 C 1.796875 -0.65625 1.796875 -0.625 1.796875 -0.59375 C 1.796875 -0.5 1.84375 -0.421875 1.9375 -0.359375 C 1.945312 -0.347656 1.957031 -0.335938 1.96875 -0.328125 C 1.976562 -0.328125 1.992188 -0.320312 2.015625 -0.3125 C 2.046875 -0.300781 2.082031 -0.289062 2.125 -0.28125 C 2.164062 -0.269531 2.203125 -0.257812 2.234375 -0.25 C 2.265625 -0.238281 2.289062 -0.234375 2.3125 -0.234375 C 2.332031 -0.234375 2.359375 -0.226562 2.390625 -0.21875 C 2.429688 -0.21875 2.46875 -0.21875 2.5 -0.21875 C 2.539062 -0.21875 2.582031 -0.21875 2.625 -0.21875 C 2.644531 -0.207031 2.664062 -0.203125 2.6875 -0.203125 C 2.707031 -0.210938 2.726562 -0.210938 2.75 -0.203125 C 2.820312 -0.191406 2.890625 -0.1875 2.953125 -0.1875 C 3.023438 -0.1875 3.101562 -0.175781 3.1875 -0.15625 C 3.207031 -0.15625 3.226562 -0.140625 3.25 -0.109375 C 3.257812 -0.0976562 3.257812 -0.078125 3.25 -0.046875 C 3.238281 -0.0234375 3.222656 -0.015625 3.203125 -0.015625 C 3.203125 -0.015625 3.195312 -0.0078125 3.1875 0 C 3.1875 0 3.175781 0 3.15625 0 C 3.125 0 3.085938 0 3.046875 0 C 3.003906 0.0078125 2.96875 0.015625 2.9375 0.015625 C 2.53125 0.015625 2.125 0.015625 1.71875 0.015625 C 1.320312 0.015625 0.921875 0.015625 0.515625 0.015625 C 0.472656 0.015625 0.425781 0.015625 0.375 0.015625 C 0.332031 0.015625 0.296875 0.015625 0.265625 0.015625 C 0.253906 0.015625 0.242188 0.0078125 0.234375 0 C 0.222656 0 0.210938 0 0.203125 0 C 0.179688 -0.0078125 0.164062 -0.0234375 0.15625 -0.046875 C 0.144531 -0.0546875 0.15625 -0.0703125 0.1875 -0.09375 C 0.21875 -0.132812 0.257812 -0.15625 0.3125 -0.15625 C 0.34375 -0.164062 0.375 -0.171875 0.40625 -0.171875 C 0.4375 -0.171875 0.460938 -0.175781 0.484375 -0.1875 C 0.578125 -0.195312 0.664062 -0.210938 0.75 -0.234375 C 0.832031 -0.253906 0.910156 -0.28125 0.984375 -0.3125 Z M 3.3125 -2.46875 C 3.445312 -2.46875 3.582031 -2.46875 3.71875 -2.46875 C 3.851562 -2.476562 3.992188 -2.488281 4.140625 -2.5 C 4.160156 -2.5 4.179688 -2.5 4.203125 -2.5 C 4.222656 -2.5 4.242188 -2.503906 4.265625 -2.515625 C 4.390625 -2.535156 4.519531 -2.546875 4.65625 -2.546875 C 4.6875 -2.546875 4.71875 -2.546875 4.75 -2.546875 C 4.78125 -2.546875 4.804688 -2.546875 4.828125 -2.546875 C 4.867188 -2.554688 4.882812 -2.578125 4.875 -2.609375 C 4.863281 -2.628906 4.851562 -2.644531 4.84375 -2.65625 C 4.832031 -2.675781 4.820312 -2.695312 4.8125 -2.71875 C 4.769531 -2.8125 4.726562 -2.90625 4.6875 -3 C 4.65625 -3.09375 4.625 -3.1875 4.59375 -3.28125 C 4.59375 -3.3125 4.585938 -3.335938 4.578125 -3.359375 C 4.566406 -3.390625 4.554688 -3.421875 4.546875 -3.453125 C 4.515625 -3.523438 4.484375 -3.585938 4.453125 -3.640625 C 4.421875 -3.703125 4.394531 -3.769531 4.375 -3.84375 C 4.332031 -3.925781 4.289062 -4.003906 4.25 -4.078125 C 4.207031 -4.160156 4.175781 -4.25 4.15625 -4.34375 C 4.144531 -4.363281 4.128906 -4.382812 4.109375 -4.40625 C 4.097656 -4.425781 4.085938 -4.453125 4.078125 -4.484375 C 4.066406 -4.515625 4.050781 -4.550781 4.03125 -4.59375 C 4.007812 -4.632812 3.992188 -4.671875 3.984375 -4.703125 C 3.953125 -4.765625 3.921875 -4.820312 3.890625 -4.875 C 3.859375 -4.9375 3.832031 -5 3.8125 -5.0625 C 3.789062 -5.113281 3.769531 -5.164062 3.75 -5.21875 C 3.726562 -5.28125 3.710938 -5.34375 3.703125 -5.40625 C 3.691406 -5.445312 3.675781 -5.488281 3.65625 -5.53125 C 3.644531 -5.570312 3.632812 -5.617188 3.625 -5.671875 C 3.613281 -5.710938 3.597656 -5.75 3.578125 -5.78125 C 3.566406 -5.820312 3.554688 -5.859375 3.546875 -5.890625 C 3.535156 -5.898438 3.523438 -5.910156 3.515625 -5.921875 C 3.515625 -5.941406 3.507812 -5.957031 3.5 -5.96875 C 3.476562 -6 3.460938 -6.003906 3.453125 -5.984375 C 3.421875 -5.972656 3.40625 -5.960938 3.40625 -5.953125 C 3.382812 -5.898438 3.367188 -5.84375 3.359375 -5.78125 C 3.347656 -5.726562 3.332031 -5.675781 3.3125 -5.625 C 3.3125 -5.582031 3.300781 -5.539062 3.28125 -5.5 C 3.269531 -5.46875 3.253906 -5.429688 3.234375 -5.390625 C 3.210938 -5.335938 3.195312 -5.289062 3.1875 -5.25 C 3.1875 -5.21875 3.179688 -5.179688 3.171875 -5.140625 C 3.160156 -5.109375 3.144531 -5.078125 3.125 -5.046875 C 3.101562 -4.992188 3.085938 -4.941406 3.078125 -4.890625 C 3.066406 -4.835938 3.050781 -4.785156 3.03125 -4.734375 C 2.976562 -4.609375 2.929688 -4.476562 2.890625 -4.34375 C 2.847656 -4.21875 2.804688 -4.085938 2.765625 -3.953125 C 2.734375 -3.859375 2.703125 -3.757812 2.671875 -3.65625 C 2.640625 -3.550781 2.613281 -3.445312 2.59375 -3.34375 C 2.5625 -3.21875 2.523438 -3.09375 2.484375 -2.96875 C 2.453125 -2.851562 2.410156 -2.738281 2.359375 -2.625 C 2.347656 -2.601562 2.34375 -2.570312 2.34375 -2.53125 C 2.34375 -2.519531 2.351562 -2.503906 2.375 -2.484375 C 2.394531 -2.472656 2.425781 -2.46875 2.46875 -2.46875 C 2.601562 -2.46875 2.738281 -2.46875 2.875 -2.46875 C 3.019531 -2.46875 3.164062 -2.46875 3.3125 -2.46875 Z M 3.3125 -2.46875 "/></g></g></g><g fill="#000000" fill-opacity="1"><g transform="translate(94.594451, 63.249992)"><g><path d="M 1.609375 -3.125 C 1.597656 -2.675781 1.59375 -2.28125 1.59375 -1.9375 C 1.59375 -1.601562 1.59375 -1.269531 1.59375 -0.9375 C 1.59375 -0.851562 1.59375 -0.765625 1.59375 -0.671875 C 1.601562 -0.578125 1.609375 -0.484375 1.609375 -0.390625 C 1.617188 -0.347656 1.632812 -0.304688 1.65625 -0.265625 C 1.6875 -0.234375 1.726562 -0.210938 1.78125 -0.203125 C 1.800781 -0.191406 1.820312 -0.1875 1.84375 -0.1875 C 1.863281 -0.1875 1.882812 -0.1875 1.90625 -0.1875 C 1.976562 -0.175781 2.039062 -0.160156 2.09375 -0.140625 C 2.15625 -0.128906 2.222656 -0.113281 2.296875 -0.09375 C 2.328125 -0.09375 2.351562 -0.0664062 2.375 -0.015625 C 2.382812 -0.00390625 2.382812 0.00390625 2.375 0.015625 C 2.375 0.0351562 2.363281 0.046875 2.34375 0.046875 C 2.320312 0.0546875 2.304688 0.0625 2.296875 0.0625 C 2.253906 0.0625 2.210938 0.0625 2.171875 0.0625 C 2.128906 0.0625 2.085938 0.0625 2.046875 0.0625 C 1.796875 0.0625 1.539062 0.0625 1.28125 0.0625 C 1.03125 0.0625 0.773438 0.0625 0.515625 0.0625 C 0.492188 0.0625 0.472656 0.0625 0.453125 0.0625 C 0.441406 0.0625 0.425781 0.0625 0.40625 0.0625 C 0.394531 0.0507812 0.382812 0.0390625 0.375 0.03125 C 0.375 0.03125 0.367188 0.0234375 0.359375 0.015625 C 0.347656 0.00390625 0.347656 -0.015625 0.359375 -0.046875 C 0.367188 -0.0664062 0.390625 -0.0859375 0.421875 -0.109375 C 0.453125 -0.117188 0.484375 -0.128906 0.515625 -0.140625 C 0.546875 -0.160156 0.582031 -0.175781 0.625 -0.1875 C 0.664062 -0.1875 0.703125 -0.191406 0.734375 -0.203125 C 0.773438 -0.210938 0.8125 -0.222656 0.84375 -0.234375 C 0.9375 -0.265625 0.988281 -0.320312 1 -0.40625 C 1.007812 -0.4375 1.015625 -0.46875 1.015625 -0.5 C 1.015625 -0.53125 1.015625 -0.5625 1.015625 -0.59375 C 1.003906 -1.082031 1 -1.570312 1 -2.0625 C 1.007812 -2.5625 1.015625 -3.054688 1.015625 -3.546875 C 1.015625 -3.671875 1.015625 -3.789062 1.015625 -3.90625 C 1.015625 -4.03125 1.007812 -4.15625 1 -4.28125 C 0.988281 -4.519531 0.984375 -4.753906 0.984375 -4.984375 C 0.984375 -5.222656 0.984375 -5.460938 0.984375 -5.703125 C 0.992188 -5.804688 0.988281 -5.921875 0.96875 -6.046875 C 0.957031 -6.078125 0.953125 -6.109375 0.953125 -6.140625 C 0.953125 -6.179688 0.945312 -6.21875 0.9375 -6.25 C 0.914062 -6.351562 0.875 -6.429688 0.8125 -6.484375 C 0.738281 -6.554688 0.664062 -6.613281 0.59375 -6.65625 C 0.570312 -6.664062 0.546875 -6.6875 0.515625 -6.71875 C 0.492188 -6.75 0.492188 -6.785156 0.515625 -6.828125 C 0.523438 -6.835938 0.53125 -6.84375 0.53125 -6.84375 C 0.539062 -6.851562 0.550781 -6.863281 0.5625 -6.875 C 0.632812 -6.914062 0.703125 -6.9375 0.765625 -6.9375 C 0.773438 -6.945312 0.789062 -6.953125 0.8125 -6.953125 C 1.238281 -6.953125 1.664062 -6.953125 2.09375 -6.953125 C 2.125 -6.953125 2.144531 -6.945312 2.15625 -6.9375 C 2.1875 -6.9375 2.222656 -6.925781 2.265625 -6.90625 C 2.304688 -6.863281 2.335938 -6.832031 2.359375 -6.8125 C 2.390625 -6.78125 2.425781 -6.742188 2.46875 -6.703125 C 2.507812 -6.671875 2.546875 -6.632812 2.578125 -6.59375 C 2.609375 -6.5625 2.640625 -6.523438 2.671875 -6.484375 C 2.710938 -6.453125 2.753906 -6.414062 2.796875 -6.375 C 2.828125 -6.34375 2.851562 -6.304688 2.875 -6.265625 C 2.90625 -6.234375 2.929688 -6.203125 2.953125 -6.171875 C 3.003906 -6.117188 3.050781 -6.0625 3.09375 -6 C 3.132812 -5.945312 3.179688 -5.894531 3.234375 -5.84375 C 3.265625 -5.800781 3.296875 -5.757812 3.328125 -5.71875 C 3.367188 -5.6875 3.40625 -5.65625 3.4375 -5.625 C 3.445312 -5.601562 3.460938 -5.582031 3.484375 -5.5625 C 3.503906 -5.539062 3.523438 -5.519531 3.546875 -5.5 C 3.578125 -5.457031 3.609375 -5.410156 3.640625 -5.359375 C 3.679688 -5.316406 3.710938 -5.273438 3.734375 -5.234375 C 3.773438 -5.203125 3.8125 -5.164062 3.84375 -5.125 C 3.875 -5.082031 3.90625 -5.046875 3.9375 -5.015625 C 3.988281 -4.941406 4.046875 -4.875 4.109375 -4.8125 C 4.171875 -4.75 4.226562 -4.679688 4.28125 -4.609375 C 4.3125 -4.566406 4.34375 -4.523438 4.375 -4.484375 C 4.40625 -4.453125 4.429688 -4.414062 4.453125 -4.375 C 4.523438 -4.28125 4.59375 -4.1875 4.65625 -4.09375 C 4.726562 -4 4.800781 -3.90625 4.875 -3.8125 C 4.96875 -3.6875 5.0625 -3.550781 5.15625 -3.40625 C 5.207031 -3.34375 5.253906 -3.28125 5.296875 -3.21875 C 5.347656 -3.15625 5.398438 -3.085938 5.453125 -3.015625 C 5.472656 -2.984375 5.507812 -2.972656 5.5625 -2.984375 C 5.582031 -2.984375 5.59375 -2.992188 5.59375 -3.015625 C 5.613281 -3.023438 5.625 -3.035156 5.625 -3.046875 C 5.625 -3.078125 5.625 -3.109375 5.625 -3.140625 C 5.625 -3.179688 5.625 -3.21875 5.625 -3.25 C 5.625 -3.644531 5.625 -4.03125 5.625 -4.40625 C 5.625 -4.789062 5.625 -5.175781 5.625 -5.5625 C 5.625 -5.6875 5.625 -5.8125 5.625 -5.9375 C 5.625 -6.0625 5.625 -6.179688 5.625 -6.296875 C 5.625 -6.328125 5.625 -6.359375 5.625 -6.390625 C 5.625 -6.429688 5.625 -6.472656 5.625 -6.515625 C 5.625 -6.566406 5.601562 -6.625 5.5625 -6.6875 C 5.539062 -6.757812 5.488281 -6.800781 5.40625 -6.8125 C 5.382812 -6.820312 5.359375 -6.828125 5.328125 -6.828125 C 5.296875 -6.828125 5.265625 -6.828125 5.234375 -6.828125 C 5.191406 -6.828125 5.148438 -6.828125 5.109375 -6.828125 C 5.066406 -6.828125 5.023438 -6.828125 4.984375 -6.828125 C 4.972656 -6.828125 4.957031 -6.828125 4.9375 -6.828125 C 4.925781 -6.835938 4.914062 -6.84375 4.90625 -6.84375 C 4.894531 -6.84375 4.878906 -6.851562 4.859375 -6.875 C 4.847656 -6.894531 4.84375 -6.90625 4.84375 -6.90625 C 4.820312 -6.945312 4.84375 -6.976562 4.90625 -7 C 4.914062 -7 4.925781 -7 4.9375 -7 C 4.945312 -7 4.953125 -7 4.953125 -7 C 5.265625 -7.007812 5.570312 -7.015625 5.875 -7.015625 C 6.175781 -7.015625 6.484375 -7.015625 6.796875 -7.015625 C 6.816406 -7.015625 6.832031 -7.007812 6.84375 -7 C 6.875 -7 6.890625 -6.988281 6.890625 -6.96875 C 6.890625 -6.945312 6.882812 -6.9375 6.875 -6.9375 C 6.851562 -6.90625 6.832031 -6.890625 6.8125 -6.890625 C 6.738281 -6.867188 6.664062 -6.847656 6.59375 -6.828125 C 6.53125 -6.816406 6.460938 -6.8125 6.390625 -6.8125 C 6.296875 -6.8125 6.21875 -6.773438 6.15625 -6.703125 C 6.09375 -6.648438 6.0625 -6.585938 6.0625 -6.515625 C 6.0625 -6.503906 6.0625 -6.492188 6.0625 -6.484375 C 6.0625 -6.472656 6.0625 -6.460938 6.0625 -6.453125 C 6.0625 -6.210938 6.0625 -5.972656 6.0625 -5.734375 C 6.0625 -5.492188 6.0625 -5.253906 6.0625 -5.015625 C 6.0625 -4.992188 6.0625 -4.96875 6.0625 -4.9375 C 6.0625 -4.914062 6.066406 -4.894531 6.078125 -4.875 C 6.085938 -4.800781 6.09375 -4.722656 6.09375 -4.640625 C 6.09375 -4.566406 6.09375 -4.488281 6.09375 -4.40625 C 6.09375 -4.34375 6.09375 -4.28125 6.09375 -4.21875 C 6.09375 -4.15625 6.09375 -4.085938 6.09375 -4.015625 C 6.09375 -3.609375 6.09375 -3.191406 6.09375 -2.765625 C 6.101562 -2.347656 6.113281 -1.929688 6.125 -1.515625 C 6.125 -1.304688 6.125 -1.09375 6.125 -0.875 C 6.125 -0.664062 6.125 -0.453125 6.125 -0.234375 C 6.125 -0.222656 6.125 -0.207031 6.125 -0.1875 C 6.125 -0.175781 6.125 -0.164062 6.125 -0.15625 C 6.101562 -0.09375 6.078125 -0.0625 6.046875 -0.0625 C 6.023438 -0.0507812 6.003906 -0.0390625 5.984375 -0.03125 C 5.960938 -0.03125 5.945312 -0.0234375 5.9375 -0.015625 C 5.894531 -0.015625 5.851562 -0.0195312 5.8125 -0.03125 C 5.769531 -0.0390625 5.734375 -0.0507812 5.703125 -0.0625 C 5.691406 -0.0820312 5.6875 -0.09375 5.6875 -0.09375 C 5.601562 -0.15625 5.53125 -0.222656 5.46875 -0.296875 C 5.40625 -0.367188 5.347656 -0.445312 5.296875 -0.53125 C 5.097656 -0.851562 4.890625 -1.160156 4.671875 -1.453125 C 4.660156 -1.484375 4.644531 -1.507812 4.625 -1.53125 C 4.601562 -1.550781 4.582031 -1.578125 4.5625 -1.609375 C 4.507812 -1.671875 4.457031 -1.738281 4.40625 -1.8125 C 4.351562 -1.882812 4.300781 -1.953125 4.25 -2.015625 C 4.144531 -2.179688 4.035156 -2.34375 3.921875 -2.5 C 3.816406 -2.65625 3.707031 -2.8125 3.59375 -2.96875 C 3.539062 -3.019531 3.492188 -3.078125 3.453125 -3.140625 C 3.421875 -3.203125 3.382812 -3.257812 3.34375 -3.3125 C 3.3125 -3.363281 3.28125 -3.410156 3.25 -3.453125 C 3.21875 -3.492188 3.179688 -3.539062 3.140625 -3.59375 C 3.085938 -3.644531 3.039062 -3.695312 3 -3.75 C 2.96875 -3.8125 2.929688 -3.875 2.890625 -3.9375 C 2.835938 -4.007812 2.789062 -4.082031 2.75 -4.15625 C 2.707031 -4.226562 2.65625 -4.296875 2.59375 -4.359375 C 2.570312 -4.390625 2.550781 -4.414062 2.53125 -4.4375 C 2.519531 -4.457031 2.503906 -4.476562 2.484375 -4.5 C 2.378906 -4.613281 2.273438 -4.726562 2.171875 -4.84375 C 2.066406 -4.96875 1.96875 -5.09375 1.875 -5.21875 C 1.820312 -5.300781 1.757812 -5.367188 1.6875 -5.421875 C 1.6875 -5.429688 1.679688 -5.4375 1.671875 -5.4375 C 1.660156 -5.4375 1.644531 -5.4375 1.625 -5.4375 C 1.613281 -5.414062 1.601562 -5.398438 1.59375 -5.390625 C 1.59375 -5.378906 1.59375 -5.375 1.59375 -5.375 C 1.59375 -5.375 1.59375 -5.367188 1.59375 -5.359375 C 1.59375 -5.347656 1.59375 -5.335938 1.59375 -5.328125 C 1.59375 -5.316406 1.59375 -5.304688 1.59375 -5.296875 C 1.59375 -4.890625 1.59375 -4.492188 1.59375 -4.109375 C 1.59375 -3.734375 1.597656 -3.40625 1.609375 -3.125 Z M 1.609375 -3.125 "/></g></g></g><g clip-path="url(#ef812aab15)"><path fill="#000000" d="M 82.703125 49.054688 C 81.171875 49.050781 80.332031 49.589844 79.566406 50.078125 C 78.660156 50.660156 77.847656 51.179688 76.167969 50.75 C 76.132812 50.742188 76.03125 50.707031 75.878906 50.660156 C 75.019531 50.378906 72.488281 49.558594 71.050781 49.539062 C 70.347656 49.53125 70.085938 49.679688 70.085938 49.90625 C 70.078125 50.402344 71.0625 51.273438 71.644531 51.789062 C 71.796875 51.921875 71.921875 52.03125 72 52.113281 C 72.554688 52.671875 72.742188 53.199219 72.675781 53.582031 C 72.640625 53.792969 72.53125 53.960938 72.367188 54.074219 C 72.207031 54.179688 72 54.234375 71.753906 54.214844 C 71.144531 54.171875 70.300781 53.691406 69.492188 52.53125 C 69.230469 52.15625 68.976562 51.792969 68.707031 51.546875 C 68.453125 51.316406 68.183594 51.1875 67.875 51.265625 C 67.394531 51.382812 67.324219 51.839844 67.246094 52.339844 C 67.164062 52.894531 67.074219 53.496094 66.46875 53.859375 C 65.917969 54.1875 65.457031 54.101562 64.984375 54.015625 C 64.625 53.953125 64.261719 53.886719 63.851562 54.011719 C 63.4375 54.140625 63.007812 54.257812 62.570312 54.316406 C 62.1875 54.371094 61.800781 54.378906 61.414062 54.316406 L 61.539062 54.125 C 61.875 54.167969 62.210938 54.15625 62.542969 54.113281 C 62.96875 54.054688 63.386719 53.941406 63.792969 53.816406 C 64.25 53.675781 64.640625 53.746094 65.019531 53.8125 C 65.453125 53.890625 65.878906 53.96875 66.363281 53.679688 C 66.882812 53.371094 66.964844 52.816406 67.042969 52.308594 C 67.128906 51.734375 67.207031 51.214844 67.828125 51.0625 C 68.214844 50.96875 68.542969 51.117188 68.84375 51.390625 C 69.132812 51.652344 69.394531 52.027344 69.660156 52.410156 C 70.429688 53.515625 71.210938 53.96875 71.765625 54.007812 C 71.964844 54.023438 72.128906 53.984375 72.253906 53.898438 C 72.367188 53.820312 72.445312 53.699219 72.472656 53.546875 C 72.527344 53.222656 72.355469 52.765625 71.855469 52.257812 C 71.785156 52.1875 71.660156 52.078125 71.507812 51.945312 L 71.507812 51.941406 C 70.898438 51.40625 69.871094 50.496094 69.878906 49.90625 C 69.882812 49.554688 70.199219 49.324219 71.054688 49.332031 C 72.523438 49.351562 75.074219 50.179688 75.941406 50.460938 C 76.089844 50.507812 76.1875 50.539062 76.21875 50.550781 C 77.8125 50.953125 78.589844 50.457031 79.453125 49.90625 C 79.941406 49.59375 80.457031 49.265625 81.152344 49.058594 C 81.667969 48.902344 82.347656 48.859375 82.703125 49.054688 " fill-opacity="1" fill-rule="nonzero"/></g><g clip-path="url(#6882ce6b8c)"><path fill="#000000" d="M 63.691406 50.863281 C 62.792969 49.886719 63.320312 47.753906 63.644531 46.523438 C 64.089844 44.945312 64.621094 43.527344 65.1875 42.464844 C 66.097656 41.914062 69.8125 40.449219 72.496094 35.777344 L 69.3125 37.214844 C 73.234375 34.613281 75.882812 29.707031 80.777344 27.050781 C 80.777344 27.050781 77.460938 27.210938 75.699219 28.449219 C 75.699219 28.449219 77.757812 26.6875 82.960938 25.917969 L 81.015625 24.953125 L 83.667969 25.296875 C 83.667969 25.296875 84.957031 22.167969 88.402344 21.019531 C 88.402344 21.019531 76.164062 18.148438 72.054688 27.605469 C 72.054688 27.605469 72.792969 25.265625 73.921875 23.246094 C 73.921875 23.246094 68.167969 24.480469 65.40625 32.390625 C 65.40625 32.390625 66.066406 29.144531 66.769531 27.695312 C 66.769531 27.695312 63.234375 30.878906 63.382812 37.179688 C 63.382812 37.179688 62.5625 35.054688 62.78125 33.289062 C 62.78125 33.289062 59.929688 37.191406 63.464844 41.636719 C 63.925781 40.597656 68.429688 30.054688 75.371094 26.445312 C 67.082031 32.609375 62.492188 44.191406 61.414062 54.316406 L 63.691406 50.863281 " fill-opacity="1" fill-rule="evenodd"/></g></svg>