<svg xmlns="http://www.w3.org/2000/svg" xmlns:xlink="http://www.w3.org/1999/xlink" width="200" zoomAndPan="magnify" viewBox="0 0 150 74.999997" height="100" preserveAspectRatio="xMidYMid meet" version="1.0"><defs><g/><clipPath id="39f1f475ac"><path d="M 48.894531 12.632812 L 98.394531 12.632812 L 98.394531 62.132812 L 48.894531 62.132812 Z M 48.894531 12.632812 " clip-rule="nonzero"/></clipPath><clipPath id="56d15d3ab7"><path d="M 63.363281 20.773438 L 82.113281 20.773438 L 82.113281 39.523438 L 63.363281 39.523438 Z M 63.363281 20.773438 " clip-rule="nonzero"/></clipPath></defs><g clip-path="url(#39f1f475ac)"><path fill="#004aad" d="M 98.617188 37.496094 C 98.617188 38.308594 98.578125 39.121094 98.5 39.933594 C 98.417969 40.742188 98.300781 41.546875 98.140625 42.34375 C 97.980469 43.144531 97.785156 43.933594 97.546875 44.710938 C 97.3125 45.492188 97.035156 46.257812 96.726562 47.007812 C 96.414062 47.761719 96.066406 48.496094 95.683594 49.214844 C 95.296875 49.933594 94.878906 50.628906 94.429688 51.308594 C 93.976562 51.984375 93.492188 52.636719 92.972656 53.265625 C 92.457031 53.894531 91.910156 54.5 91.335938 55.074219 C 90.761719 55.652344 90.15625 56.195312 89.527344 56.714844 C 88.898438 57.230469 88.246094 57.714844 87.570312 58.167969 C 86.890625 58.617188 86.195312 59.035156 85.476562 59.421875 C 84.757812 59.804688 84.023438 60.152344 83.269531 60.464844 C 82.519531 60.777344 81.753906 61.050781 80.972656 61.285156 C 80.195312 61.523438 79.40625 61.71875 78.605469 61.878906 C 77.808594 62.039062 77.003906 62.15625 76.195312 62.238281 C 75.382812 62.316406 74.570312 62.355469 73.757812 62.355469 C 72.941406 62.355469 72.128906 62.316406 71.320312 62.238281 C 70.507812 62.15625 69.703125 62.039062 68.90625 61.878906 C 68.109375 61.71875 67.320312 61.523438 66.539062 61.285156 C 65.761719 61.050781 64.996094 60.777344 64.242188 60.464844 C 63.492188 60.152344 62.753906 59.804688 62.035156 59.421875 C 61.320312 59.035156 60.621094 58.617188 59.945312 58.167969 C 59.265625 57.714844 58.613281 57.230469 57.984375 56.714844 C 57.355469 56.195312 56.753906 55.652344 56.175781 55.074219 C 55.601562 54.5 55.054688 53.894531 54.539062 53.265625 C 54.023438 52.636719 53.539062 51.984375 53.085938 51.308594 C 52.632812 50.628906 52.214844 49.933594 51.832031 49.214844 C 51.445312 48.496094 51.097656 47.761719 50.789062 47.007812 C 50.476562 46.257812 50.203125 45.492188 49.964844 44.710938 C 49.730469 43.933594 49.53125 43.144531 49.371094 42.34375 C 49.214844 41.546875 49.09375 40.742188 49.015625 39.933594 C 48.933594 39.121094 48.894531 38.308594 48.894531 37.496094 C 48.894531 36.679688 48.933594 35.867188 49.015625 35.058594 C 49.09375 34.246094 49.214844 33.445312 49.371094 32.644531 C 49.53125 31.847656 49.730469 31.058594 49.964844 30.277344 C 50.203125 29.5 50.476562 28.734375 50.789062 27.980469 C 51.097656 27.230469 51.445312 26.492188 51.832031 25.777344 C 52.214844 25.058594 52.632812 24.359375 53.085938 23.683594 C 53.539062 23.007812 54.023438 22.351562 54.539062 21.722656 C 55.054688 21.09375 55.601562 20.492188 56.175781 19.914062 C 56.753906 19.339844 57.355469 18.792969 57.984375 18.277344 C 58.613281 17.761719 59.265625 17.277344 59.945312 16.824219 C 60.621094 16.371094 61.320312 15.953125 62.035156 15.570312 C 62.753906 15.1875 63.492188 14.835938 64.242188 14.527344 C 64.996094 14.214844 65.761719 13.941406 66.539062 13.703125 C 67.320312 13.46875 68.109375 13.269531 68.90625 13.113281 C 69.703125 12.953125 70.507812 12.832031 71.320312 12.753906 C 72.128906 12.671875 72.941406 12.632812 73.757812 12.632812 C 74.570312 12.632812 75.382812 12.671875 76.195312 12.753906 C 77.003906 12.832031 77.808594 12.953125 78.605469 13.113281 C 79.40625 13.269531 80.195312 13.46875 80.972656 13.703125 C 81.753906 13.941406 82.519531 14.214844 83.269531 14.527344 C 84.023438 14.835938 84.757812 15.1875 85.476562 15.570312 C 86.195312 15.953125 86.890625 16.371094 87.570312 16.824219 C 88.246094 17.277344 88.898438 17.761719 89.527344 18.277344 C 90.15625 18.792969 90.761719 19.339844 91.335938 19.914062 C 91.910156 20.492188 92.457031 21.09375 92.972656 21.722656 C 93.492188 22.351562 93.976562 23.007812 94.429688 23.683594 C 94.878906 24.359375 95.296875 25.058594 95.683594 25.777344 C 96.066406 26.492188 96.414062 27.230469 96.726562 27.980469 C 97.035156 28.734375 97.3125 29.5 97.546875 30.277344 C 97.785156 31.058594 97.980469 31.847656 98.140625 32.644531 C 98.300781 33.445312 98.417969 34.246094 98.5 35.058594 C 98.578125 35.867188 98.617188 36.679688 98.617188 37.496094 Z M 98.617188 37.496094 " fill-opacity="1" fill-rule="nonzero"/></g><g clip-path="url(#56d15d3ab7)"><path fill="#ffffff" d="M 71.640625 35.335938 L 69.652344 36.640625 C 69.476562 36.757812 69.242188 36.617188 69.257812 36.40625 L 69.449219 34.003906 C 69.464844 33.8125 69.675781 33.707031 69.839844 33.804688 L 71.632812 34.902344 C 71.792969 35 71.796875 35.230469 71.640625 35.335938 Z M 77.039062 31.820312 C 76.9375 31.984375 76.726562 32.035156 76.5625 31.9375 L 76.546875 31.929688 L 76.042969 31.621094 L 75.523438 31.300781 C 75.359375 31.199219 75.308594 30.988281 75.40625 30.824219 L 80.976562 21.71875 C 80.675781 21.460938 80.332031 21.253906 79.960938 21.101562 L 74.394531 30.203125 C 74.386719 30.21875 74.375 30.230469 74.363281 30.246094 C 74.265625 30.378906 74.078125 30.417969 73.933594 30.328125 L 73.5 30.0625 L 72.878906 29.683594 C 72.714844 29.582031 72.664062 29.371094 72.761719 29.207031 L 77.890625 20.820312 L 76.503906 20.816406 L 71.75 28.585938 C 71.742188 28.601562 71.730469 28.613281 71.71875 28.628906 C 71.621094 28.761719 71.433594 28.800781 71.285156 28.710938 L 71.085938 28.585938 L 70.234375 28.066406 C 70.070312 27.964844 70.019531 27.753906 70.117188 27.589844 L 74.265625 20.808594 L 67.195312 20.78125 C 65.117188 20.773438 63.425781 22.449219 63.417969 24.53125 L 63.375 35.890625 C 63.367188 37.96875 65.046875 39.660156 67.125 39.667969 L 78.484375 39.710938 C 80.5625 39.722656 82.253906 38.042969 82.261719 35.960938 L 82.304688 24.601562 C 82.308594 24.210938 82.25 23.835938 82.140625 23.480469 L 77.039062 31.820312 " fill-opacity="1" fill-rule="nonzero"/></g><g fill="#ffffff" fill-opacity="1"><g transform="translate(63.76822, 50.921765)"><g><path d="M 1.375 -0.328125 L 0.59375 -0.328125 L 0.453125 0 L -0.015625 0 L 0.765625 -1.796875 L 1.234375 -1.796875 L 2 0 L 1.515625 0 Z M 1.25 -0.6875 L 0.984375 -1.34375 L 0.71875 -0.6875 Z M 1.25 -0.6875 "/></g></g></g><g fill="#ffffff" fill-opacity="1"><g transform="translate(66.004837, 50.921765)"><g/></g></g><g fill="#ffffff" fill-opacity="1"><g transform="translate(66.858352, 50.921765)"><g><path d="M 0.1875 -1.796875 L 1.03125 -1.796875 C 1.238281 -1.796875 1.398438 -1.753906 1.515625 -1.671875 C 1.640625 -1.597656 1.703125 -1.492188 1.703125 -1.359375 C 1.703125 -1.265625 1.671875 -1.179688 1.609375 -1.109375 C 1.554688 -1.035156 1.484375 -0.984375 1.390625 -0.953125 C 1.503906 -0.929688 1.59375 -0.878906 1.65625 -0.796875 C 1.726562 -0.710938 1.765625 -0.613281 1.765625 -0.5 C 1.765625 -0.34375 1.703125 -0.21875 1.578125 -0.125 C 1.453125 -0.0390625 1.28125 0 1.0625 0 L 0.1875 0 Z M 0.640625 -1.453125 L 0.640625 -1.078125 L 1.015625 -1.078125 C 1.078125 -1.078125 1.128906 -1.09375 1.171875 -1.125 C 1.210938 -1.164062 1.234375 -1.210938 1.234375 -1.265625 C 1.234375 -1.328125 1.210938 -1.375 1.171875 -1.40625 C 1.128906 -1.4375 1.078125 -1.453125 1.015625 -1.453125 Z M 0.640625 -0.75 L 0.640625 -0.359375 L 1.015625 -0.359375 C 1.097656 -0.359375 1.160156 -0.375 1.203125 -0.40625 C 1.253906 -0.445312 1.28125 -0.5 1.28125 -0.5625 C 1.28125 -0.613281 1.253906 -0.65625 1.203125 -0.6875 C 1.160156 -0.726562 1.097656 -0.75 1.015625 -0.75 Z M 0.640625 -0.75 "/></g></g></g><g fill="#ffffff" fill-opacity="1"><g transform="translate(68.953575, 50.921765)"><g><path d="M 0.640625 -0.390625 L 1.40625 -0.390625 L 1.40625 0 L 0.1875 0 L 0.1875 -1.796875 L 0.640625 -1.796875 Z M 0.640625 -0.390625 "/></g></g></g><g fill="#ffffff" fill-opacity="1"><g transform="translate(70.650321, 50.921765)"><g><path d="M 1.03125 -1.8125 C 1.3125 -1.8125 1.546875 -1.722656 1.734375 -1.546875 C 1.921875 -1.378906 2.015625 -1.164062 2.015625 -0.90625 C 2.015625 -0.644531 1.921875 -0.425781 1.734375 -0.25 C 1.546875 -0.0703125 1.3125 0.015625 1.03125 0.015625 C 0.757812 0.015625 0.53125 -0.0703125 0.34375 -0.25 C 0.15625 -0.425781 0.0625 -0.644531 0.0625 -0.90625 C 0.0625 -1.164062 0.15625 -1.378906 0.34375 -1.546875 C 0.53125 -1.722656 0.757812 -1.8125 1.03125 -1.8125 Z M 1.046875 -1.4375 C 0.898438 -1.4375 0.773438 -1.382812 0.671875 -1.28125 C 0.578125 -1.175781 0.53125 -1.046875 0.53125 -0.890625 C 0.53125 -0.742188 0.578125 -0.617188 0.671875 -0.515625 C 0.773438 -0.410156 0.894531 -0.359375 1.03125 -0.359375 C 1.175781 -0.359375 1.296875 -0.410156 1.390625 -0.515625 C 1.492188 -0.617188 1.546875 -0.742188 1.546875 -0.890625 C 1.546875 -1.046875 1.492188 -1.175781 1.390625 -1.28125 C 1.296875 -1.382812 1.179688 -1.4375 1.046875 -1.4375 Z M 1.046875 -1.4375 "/></g></g></g><g fill="#ffffff" fill-opacity="1"><g transform="translate(72.976919, 50.921765)"><g><path d="M 1.375 -0.921875 L 1.78125 -0.921875 L 1.78125 -0.21875 C 1.675781 -0.144531 1.554688 -0.0859375 1.421875 -0.046875 C 1.285156 -0.00390625 1.15625 0.015625 1.03125 0.015625 C 0.75 0.015625 0.515625 -0.0703125 0.328125 -0.25 C 0.148438 -0.425781 0.0625 -0.644531 0.0625 -0.90625 C 0.0625 -1.164062 0.15625 -1.378906 0.34375 -1.546875 C 0.53125 -1.722656 0.769531 -1.8125 1.0625 -1.8125 C 1.195312 -1.8125 1.328125 -1.785156 1.453125 -1.734375 C 1.585938 -1.691406 1.703125 -1.628906 1.796875 -1.546875 L 1.53125 -1.234375 C 1.46875 -1.296875 1.394531 -1.34375 1.3125 -1.375 C 1.226562 -1.414062 1.140625 -1.4375 1.046875 -1.4375 C 0.898438 -1.4375 0.773438 -1.382812 0.671875 -1.28125 C 0.578125 -1.175781 0.53125 -1.050781 0.53125 -0.90625 C 0.53125 -0.75 0.578125 -0.617188 0.671875 -0.515625 C 0.773438 -0.410156 0.90625 -0.359375 1.0625 -0.359375 C 1.15625 -0.359375 1.257812 -0.390625 1.375 -0.453125 Z M 1.375 -0.921875 "/></g></g></g><g fill="#ffffff" fill-opacity="1"><g transform="translate(75.144125, 50.921765)"><g/></g></g><g fill="#ffffff" fill-opacity="1"><g transform="translate(75.997639, 50.921765)"><g><path d="M 1.375 -0.328125 L 0.59375 -0.328125 L 0.453125 0 L -0.015625 0 L 0.765625 -1.796875 L 1.234375 -1.796875 L 2 0 L 1.515625 0 Z M 1.25 -0.6875 L 0.984375 -1.34375 L 0.71875 -0.6875 Z M 1.25 -0.6875 "/></g></g></g><g fill="#ffffff" fill-opacity="1"><g transform="translate(78.234257, 50.921765)"><g><path d="M 0.1875 -1.796875 L 0.96875 -1.796875 C 1.195312 -1.796875 1.375 -1.742188 1.5 -1.640625 C 1.625 -1.535156 1.6875 -1.378906 1.6875 -1.171875 C 1.6875 -0.960938 1.625 -0.800781 1.5 -0.6875 C 1.375 -0.570312 1.195312 -0.515625 0.96875 -0.515625 L 0.640625 -0.515625 L 0.640625 0 L 0.1875 0 Z M 0.640625 -1.4375 L 0.640625 -0.875 L 0.9375 -0.875 C 1.039062 -0.875 1.117188 -0.894531 1.171875 -0.9375 C 1.234375 -0.988281 1.265625 -1.0625 1.265625 -1.15625 C 1.265625 -1.25 1.234375 -1.316406 1.171875 -1.359375 C 1.117188 -1.410156 1.039062 -1.4375 0.9375 -1.4375 Z M 0.640625 -1.4375 "/></g></g></g><g fill="#ffffff" fill-opacity="1"><g transform="translate(80.239501, 50.921765)"><g><path d="M 0.1875 -1.796875 L 0.96875 -1.796875 C 1.195312 -1.796875 1.375 -1.742188 1.5 -1.640625 C 1.625 -1.535156 1.6875 -1.378906 1.6875 -1.171875 C 1.6875 -0.960938 1.625 -0.800781 1.5 -0.6875 C 1.375 -0.570312 1.195312 -0.515625 0.96875 -0.515625 L 0.640625 -0.515625 L 0.640625 0 L 0.1875 0 Z M 0.640625 -1.4375 L 0.640625 -0.875 L 0.9375 -0.875 C 1.039062 -0.875 1.117188 -0.894531 1.171875 -0.9375 C 1.234375 -0.988281 1.265625 -1.0625 1.265625 -1.15625 C 1.265625 -1.25 1.234375 -1.316406 1.171875 -1.359375 C 1.117188 -1.410156 1.039062 -1.4375 0.9375 -1.4375 Z M 0.640625 -1.4375 "/></g></g></g><g fill="#ffffff" fill-opacity="1"><g transform="translate(60.988512, 47.22834)"><g><path d="M 1.359375 -0.8125 L 2.984375 -0.8125 L 2.984375 0 L 0.390625 0 L 0.390625 -3.84375 L 1.359375 -3.84375 Z M 1.359375 -0.8125 "/></g></g></g><g fill="#ffffff" fill-opacity="1"><g transform="translate(64.05904, 47.22834)"><g><path d="M 3.390625 -3.078125 L 1.359375 -3.078125 L 1.359375 -2.3125 L 3.1875 -2.3125 L 3.1875 -1.546875 L 1.359375 -1.546875 L 1.359375 -0.765625 L 3.453125 -0.765625 L 3.453125 0 L 0.390625 0 L 0.390625 -3.84375 L 3.390625 -3.84375 Z M 3.390625 -3.078125 "/></g></g></g><g fill="#ffffff" fill-opacity="1"><g transform="translate(67.75464, 47.22834)"><g><path d="M 2.890625 0 L 1.875 -1.515625 L 1.359375 -0.9375 L 1.359375 0 L 0.390625 0 L 0.390625 -3.84375 L 1.359375 -3.84375 L 1.359375 -2.171875 L 2.828125 -3.84375 L 3.953125 -3.84375 L 2.53125 -2.25 L 4.046875 0 Z M 2.890625 0 "/></g></g></g><g fill="#ffffff" fill-opacity="1"><g transform="translate(71.850504, 47.22834)"><g><path d="M 3.921875 0 L 2.953125 0 L 2.953125 -1.484375 L 1.359375 -1.484375 L 1.359375 0 L 0.390625 0 L 0.390625 -3.84375 L 1.359375 -3.84375 L 1.359375 -2.265625 L 2.953125 -2.265625 L 2.953125 -3.84375 L 3.921875 -3.84375 Z M 3.921875 0 "/></g></g></g><g fill="#ffffff" fill-opacity="1"><g transform="translate(76.160209, 47.22834)"><g><path d="M 2.9375 -0.703125 L 1.25 -0.703125 L 0.96875 0 L -0.03125 0 L 1.625 -3.84375 L 2.625 -3.84375 L 4.25 0 L 3.203125 0 Z M 2.65625 -1.453125 L 2.09375 -2.875 L 1.546875 -1.453125 Z M 2.65625 -1.453125 "/></g></g></g><g fill="#ffffff" fill-opacity="1"><g transform="translate(80.382184, 47.22834)"><g><path d="M 3.921875 0 L 3.0625 0 L 1.296875 -2.359375 L 1.296875 0 L 0.390625 0 L 0.390625 -3.84375 L 1.25 -3.84375 L 3.015625 -1.46875 L 3.015625 -3.84375 L 3.921875 -3.84375 Z M 3.921875 0 "/></g></g></g></svg>